<svg width="236" height="236" viewBox="0 0 236 236" fill="none" xmlns="http://www.w3.org/2000/svg">
<g clip-path="url(#clip0_5_442)">
<g filter="url(#filter0_d_5_442)">
<path d="M118 225.5C179.58 225.5 229.5 175.58 229.5 114C229.5 52.4202 179.58 2.5 118 2.5C56.4202 2.5 6.5 52.4202 6.5 114C6.5 175.58 56.4202 225.5 118 225.5Z" stroke="#20232A" stroke-width="5"/>
<path d="M118 204.5C167.982 204.5 208.5 163.982 208.5 114C208.5 64.0182 167.982 23.5 118 23.5C68.0182 23.5 27.5 64.0182 27.5 114C27.5 163.982 68.0182 204.5 118 204.5Z" fill="#20232A" stroke="#20232A"/>
<g clip-path="url(#clip1_5_442)">
<path d="M105.092 65.4258H75.7669C72.9103 65.4341 70.1733 66.5755 68.1553 68.6001C66.1373 70.6247 65.0028 73.3675 65 76.2279C64.9197 79.0004 65.9411 81.6915 67.8401 83.7107C69.739 85.73 72.3604 86.9124 75.129 86.9986H75.448H105.406L105.092 65.4258Z" fill="#073042"/>
<path d="M171.895 161.509H75.7329C72.8867 161.492 70.1624 160.35 68.1525 158.332C66.1426 156.314 65.0096 153.583 65 150.733V76.1677C64.9928 77.5879 65.265 78.9956 65.8012 80.3103C66.3373 81.6251 67.1269 82.8213 68.1248 83.8305C69.1227 84.8396 70.3094 85.6421 71.617 86.192C72.9247 86.7419 74.3277 87.0285 75.746 87.0353C75.9866 87.0353 76.2245 87.0353 76.4624 87.0144H156.223C156.223 87.0144 171.895 85.653 171.895 97.4866V161.509Z" fill="#4285F4"/>
<path d="M121.115 109.648C119.846 109.671 118.618 110.099 117.609 110.87C116.6 111.64 115.864 112.714 115.507 113.933C115.15 115.152 115.191 116.454 115.625 117.648C116.058 118.842 116.861 119.867 117.917 120.572C118.972 121.277 120.225 121.626 121.493 121.568C122.761 121.511 123.977 121.049 124.964 120.251C125.951 119.452 126.658 118.359 126.982 117.131C127.305 115.902 127.228 114.602 126.762 113.42C126.312 112.293 125.532 111.329 124.523 110.656C123.515 109.982 122.327 109.631 121.115 109.648V109.648Z" fill="black"/>
<path d="M127.037 123.319C128.644 122.113 129.837 120.436 130.45 118.521C131.063 116.606 131.065 114.547 130.456 112.63C129.847 110.714 128.658 109.034 127.053 107.825C125.448 106.616 123.507 105.937 121.499 105.883H121.813C122.38 105.828 122.951 105.828 123.517 105.883V99.882C123.532 99.5426 123.455 99.2056 123.296 98.9056C123.137 98.6056 122.901 98.3534 122.613 98.175C122.323 98.0029 121.992 97.9121 121.655 97.9121C121.317 97.9121 120.986 98.0029 120.696 98.175C120.408 98.3534 120.172 98.6056 120.013 98.9056C119.854 99.2056 119.777 99.5426 119.792 99.882V105.987C117.9 106.288 116.139 107.141 114.73 108.44C113.321 109.74 112.328 111.427 111.874 113.29C111.42 115.153 111.526 117.109 112.179 118.912C112.831 120.715 114.002 122.285 115.543 123.424L97.8133 161.37H109.378L117.554 143.931C117.901 143.209 118.446 142.601 119.124 142.175C119.802 141.749 120.586 141.524 121.387 141.525C122.182 141.523 122.962 141.748 123.635 142.174C124.307 142.6 124.844 143.21 125.183 143.931L133.61 161.37H145.321L127.037 123.319ZM121.115 121.609C119.923 121.614 118.757 121.264 117.765 120.604C116.772 119.944 115.998 119.004 115.54 117.903C115.082 116.802 114.961 115.589 115.192 114.419C115.423 113.249 115.996 112.173 116.839 111.33C117.681 110.486 118.755 109.912 119.924 109.681C121.092 109.449 122.303 109.57 123.403 110.029C124.503 110.488 125.442 111.263 126.101 112.257C126.76 113.251 127.109 114.418 127.105 115.611C127.105 117.202 126.474 118.728 125.35 119.853C124.227 120.977 122.703 121.609 121.115 121.609V121.609Z" fill="#3870B2"/>
<path d="M98.7545 70.73H139.887V78.2962H98.7545V70.73Z" fill="white"/>
<path d="M117.912 109.647C119.287 109.658 120.617 110.144 121.675 111.025C122.732 111.906 123.453 113.126 123.713 114.479C123.974 115.831 123.759 117.232 123.105 118.444C122.451 119.656 121.397 120.603 120.124 121.125C118.851 121.647 117.437 121.712 116.122 121.308C114.807 120.904 113.672 120.056 112.91 118.909C112.149 117.762 111.807 116.387 111.944 115.016C112.081 113.646 112.687 112.365 113.66 111.391C114.795 110.275 116.321 109.649 117.912 109.647ZM120.265 106.16V99.8769C120.279 99.5375 120.203 99.2005 120.044 98.9005C119.885 98.6004 119.649 98.3483 119.36 98.1699C119.07 97.9978 118.739 97.907 118.402 97.907C118.065 97.907 117.734 97.9978 117.444 98.1699C117.155 98.3487 116.92 98.6009 116.761 98.9008C116.602 99.2008 116.525 99.5376 116.539 99.8769V105.982C114.647 106.282 112.886 107.136 111.478 108.435C110.069 109.734 109.075 111.422 108.621 113.285C108.167 115.148 108.273 117.104 108.926 118.907C109.579 120.71 110.749 122.28 112.29 123.419L90.0479 171.379C89.6332 172.222 89.4499 173.161 89.517 174.098C89.5841 175.036 89.8991 175.939 90.4296 176.714C90.9688 177.483 91.6995 178.096 92.549 178.494C93.3986 178.892 94.3373 179.06 95.2719 178.982C96.2062 178.891 97.0994 178.552 97.8589 178C98.6183 177.448 99.2164 176.702 99.5912 175.84L114.416 143.931C114.767 143.212 115.312 142.605 115.99 142.18C116.667 141.755 117.45 141.528 118.249 141.525C119.045 141.523 119.825 141.748 120.497 142.174C121.17 142.601 121.707 143.21 122.045 143.931L137.265 175.667C137.567 176.29 137.988 176.847 138.505 177.307C139.022 177.767 139.624 178.12 140.277 178.347C140.931 178.573 141.622 178.669 142.312 178.628C143.002 178.587 143.678 178.411 144.3 178.109C144.922 177.806 145.478 177.384 145.937 176.867C146.396 176.349 146.749 175.746 146.976 175.092C147.202 174.438 147.297 173.746 147.257 173.055C147.216 172.364 147.04 171.687 146.738 171.065L123.829 123.319C125.239 122.192 126.312 120.696 126.928 118.997C127.543 117.298 127.679 115.462 127.318 113.691C126.958 111.92 126.116 110.283 124.886 108.961C123.656 107.638 122.085 106.682 120.346 106.197" fill="#073042"/>
<path d="M133.931 77.3877C133.373 77.4001 132.824 77.2445 132.355 76.9408C131.887 76.6372 131.52 76.1996 131.302 75.6848C131.085 75.17 131.027 74.6016 131.136 74.0533C131.244 73.505 131.515 73.0021 131.913 72.6097C132.308 72.2186 132.809 71.9528 133.353 71.8456C133.898 71.7384 134.462 71.7945 134.975 72.007C135.489 72.2194 135.928 72.5787 136.238 73.0398C136.548 73.501 136.715 74.0435 136.719 74.5994C136.719 74.9658 136.646 75.3286 136.506 75.6671C136.366 76.0055 136.161 76.313 135.902 76.5719C135.643 76.8309 135.336 77.0362 134.998 77.1762C134.66 77.3162 134.297 77.388 133.931 77.3877ZM102.969 77.3877C102.414 77.3937 101.869 77.2334 101.405 76.9273C100.942 76.6212 100.58 76.1834 100.366 75.6699C100.153 75.1564 100.097 74.5907 100.207 74.0455C100.317 73.5002 100.587 73.0002 100.982 72.6097C101.217 72.3228 101.506 72.0851 101.833 71.91C102.16 71.735 102.518 71.6262 102.887 71.5897C103.256 71.5533 103.628 71.5899 103.983 71.6975C104.337 71.8051 104.667 71.9817 104.954 72.217C105.24 72.4523 105.478 72.7419 105.652 73.0691C105.827 73.3963 105.936 73.7548 105.972 74.1241C106.009 74.4934 105.972 74.8662 105.865 75.2213C105.757 75.5765 105.581 75.9069 105.346 76.1938C105.229 76.3375 105.097 76.4691 104.954 76.5865C104.693 76.8462 104.383 77.0509 104.043 77.1885C103.702 77.3261 103.337 77.3938 102.969 77.3877M134.943 60.475L140.515 50.7881C140.62 50.5245 140.628 50.2317 140.536 49.963C140.444 49.6942 140.259 49.4675 140.014 49.3239C139.77 49.1803 139.482 49.1294 139.203 49.1804C138.923 49.2315 138.672 49.3811 138.494 49.6022L132.852 59.4278C128.329 57.3942 123.428 56.3428 118.471 56.3428C113.514 56.3428 108.613 57.3942 104.091 59.4278L98.4068 49.5917C98.3036 49.4138 98.1562 49.2658 97.9788 49.1621C97.8015 49.0584 97.6003 49.0025 97.3949 49C97.1902 49.0101 96.9908 49.0691 96.8134 49.172C96.6361 49.275 96.4858 49.4188 96.3752 49.5917C96.2713 49.772 96.2166 49.9765 96.2166 50.1847C96.2166 50.3929 96.2713 50.5974 96.3752 50.7777L101.984 60.4645C97.1525 63.1175 93.058 66.9343 90.0702 71.5699C87.0823 76.2054 85.2954 81.5135 84.871 87.0143H152.092C151.661 81.5121 149.868 76.2043 146.873 71.5706C143.879 66.9369 139.779 63.1234 134.943 60.475" fill="#3DDC84"/>
<path d="M162.248 107.694H157.818C157.67 107.694 157.528 107.753 157.423 107.859C157.318 107.964 157.259 108.106 157.259 108.255V108.255V178.178C157.259 178.32 157.313 178.457 157.41 178.561C157.507 178.664 157.64 178.727 157.782 178.736H162.344C164.905 178.729 167.359 177.705 169.168 175.889C170.977 174.073 171.992 171.613 171.992 169.049V97.9998C171.992 100.569 170.973 103.033 169.159 104.849C167.344 106.666 164.884 107.687 162.318 107.687L162.248 107.694Z" fill="#073042"/>
</g>
</g>
</g>
<defs>
<filter id="filter0_d_5_442" x="0" y="0" width="236" height="236" filterUnits="userSpaceOnUse" color-interpolation-filters="sRGB">
<feFlood flood-opacity="0" result="BackgroundImageFix"/>
<feColorMatrix in="SourceAlpha" type="matrix" values="0 0 0 0 0 0 0 0 0 0 0 0 0 0 0 0 0 0 127 0" result="hardAlpha"/>
<feOffset dy="4"/>
<feGaussianBlur stdDeviation="2"/>
<feColorMatrix type="matrix" values="0 0 0 0 0 0 0 0 0 0 0 0 0 0 0 0 0 0 0.25 0"/>
<feBlend mode="normal" in2="BackgroundImageFix" result="effect1_dropShadow_5_442"/>
<feBlend mode="normal" in="SourceGraphic" in2="effect1_dropShadow_5_442" result="shape"/>
</filter>
<clipPath id="clip0_5_442">
<rect width="236" height="236" fill="white"/>
</clipPath>
<clipPath id="clip1_5_442">
<rect width="107" height="130" fill="white" transform="translate(65 49)"/>
</clipPath>
</defs>
</svg>
