<svg width="236" height="236" viewBox="0 0 236 236" fill="none" xmlns="http://www.w3.org/2000/svg">
<g clip-path="url(#clip0_6_549)">
<g filter="url(#filter0_d_6_549)">
<path d="M118 225.5C179.58 225.5 229.5 175.58 229.5 114C229.5 52.4202 179.58 2.5 118 2.5C56.4202 2.5 6.5 52.4202 6.5 114C6.5 175.58 56.4202 225.5 118 225.5Z" stroke="#20232A" stroke-width="5"/>
<path d="M118 204.5C167.982 204.5 208.5 163.982 208.5 114C208.5 64.0182 167.982 23.5 118 23.5C68.0182 23.5 27.5 64.0182 27.5 114C27.5 163.982 68.0182 204.5 118 204.5Z" fill="#20232A" stroke="#20232A"/>
</g>
<g clip-path="url(#clip1_6_549)">
<path d="M89.4827 106.691C89.4827 108.317 89.6587 109.635 89.9667 110.602C90.3187 111.568 90.7587 112.623 91.3747 113.765C91.5946 114.117 91.6826 114.468 91.6826 114.776C91.6826 115.215 91.4187 115.655 90.8467 116.094L88.0747 117.939C87.6787 118.203 87.2828 118.335 86.9308 118.335C86.4908 118.335 86.0508 118.115 85.6108 117.72C84.9948 117.061 84.4668 116.358 84.0268 115.655C83.5869 114.908 83.1469 114.073 82.6629 113.062C79.231 117.105 74.9191 119.126 69.7272 119.126C66.0313 119.126 63.0834 118.071 60.9274 115.962C58.7715 113.853 57.6715 111.041 57.6715 107.526C57.6715 103.791 58.9915 100.76 61.6754 98.475C64.3593 96.1902 67.9232 95.0478 72.4551 95.0478C73.9511 95.0478 75.4911 95.1796 77.119 95.3993C78.747 95.619 80.4189 95.9705 82.1789 96.366V93.1585C82.1789 89.8192 81.4749 87.4905 80.1109 86.1285C78.703 84.7664 76.327 84.1073 72.9391 84.1073C71.3992 84.1073 69.8152 84.2831 68.1872 84.6785C66.5593 85.074 64.9753 85.5573 63.4354 86.1724C62.7314 86.48 62.2034 86.6557 61.8954 86.7436C61.5874 86.8315 61.3674 86.8754 61.1914 86.8754C60.5754 86.8754 60.2674 86.436 60.2674 85.5133V83.3604C60.2674 82.6574 60.3554 82.1301 60.5754 81.8226C60.7954 81.515 61.1914 81.2075 61.8074 80.8999C63.3474 80.109 65.1953 79.4499 67.3513 78.9227C69.5072 78.3515 71.7952 78.0879 74.2151 78.0879C79.451 78.0879 83.2789 79.2742 85.7428 81.6468C88.1627 84.0195 89.3947 87.6224 89.3947 92.4555V106.691H89.4827ZM71.6192 113.37C73.0711 113.37 74.5671 113.106 76.151 112.579C77.735 112.052 79.143 111.085 80.3309 109.767C81.0349 108.932 81.5629 108.009 81.8269 106.955C82.0909 105.9 82.2669 104.626 82.2669 103.132V101.287C80.9909 100.979 79.627 100.716 78.219 100.54C76.811 100.364 75.4471 100.276 74.0831 100.276C71.1352 100.276 68.9792 100.848 67.5273 102.034C66.0753 103.22 65.3713 104.89 65.3713 107.087C65.3713 109.152 65.8993 110.69 66.9993 111.744C68.0552 112.843 69.5952 113.37 71.6192 113.37V113.37ZM106.95 118.115C106.158 118.115 105.63 117.983 105.278 117.676C104.926 117.412 104.618 116.797 104.354 115.962L94.0146 81.9983C93.7506 81.1196 93.6186 80.5484 93.6186 80.2408C93.6186 79.5378 93.9706 79.1424 94.6746 79.1424H98.9865C99.8224 79.1424 100.394 79.2742 100.702 79.5818C101.054 79.8454 101.318 80.4605 101.582 81.2953L108.974 110.382L115.838 81.2953C116.058 80.4166 116.322 79.8454 116.674 79.5818C117.026 79.3181 117.642 79.1424 118.434 79.1424H121.954C122.79 79.1424 123.362 79.2742 123.714 79.5818C124.066 79.8454 124.374 80.4605 124.55 81.2953L131.502 110.734L139.113 81.2953C139.377 80.4166 139.685 79.8454 139.993 79.5818C140.345 79.3181 140.917 79.1424 141.709 79.1424H145.801C146.505 79.1424 146.901 79.4939 146.901 80.2408C146.901 80.4605 146.857 80.6802 146.813 80.9438C146.769 81.2075 146.681 81.559 146.505 82.0423L135.902 116.006C135.638 116.885 135.33 117.456 134.978 117.72C134.626 117.983 134.054 118.159 133.306 118.159H129.522C128.686 118.159 128.114 118.027 127.762 117.72C127.41 117.412 127.102 116.841 126.926 115.962L120.106 87.6224L113.33 115.918C113.11 116.797 112.846 117.368 112.494 117.676C112.142 117.983 111.526 118.115 110.734 118.115H106.95ZM163.489 119.301C161.201 119.301 158.913 119.038 156.713 118.511C154.513 117.983 152.797 117.412 151.653 116.753C150.949 116.358 150.465 115.918 150.289 115.523C150.113 115.127 150.025 114.688 150.025 114.293V112.052C150.025 111.129 150.377 110.69 151.037 110.69C151.301 110.69 151.565 110.734 151.829 110.821C152.093 110.909 152.489 111.085 152.929 111.261C154.425 111.92 156.053 112.447 157.769 112.799C159.529 113.15 161.245 113.326 163.005 113.326C165.777 113.326 167.933 112.843 169.429 111.876C170.925 110.909 171.717 109.503 171.717 107.702C171.717 106.472 171.321 105.461 170.529 104.626C169.737 103.791 168.241 103.044 166.085 102.341L159.705 100.364C156.493 99.3537 154.117 97.8598 152.665 95.8826C151.213 93.9494 150.465 91.7964 150.465 89.5117C150.465 87.6663 150.861 86.0406 151.653 84.6346C152.445 83.2286 153.501 81.9983 154.821 81.0317C156.141 80.0211 157.637 79.2742 159.397 78.7469C161.157 78.2197 163.005 78 164.941 78C165.909 78 166.921 78.0439 167.889 78.1758C168.901 78.3076 169.825 78.4833 170.749 78.6591C171.629 78.8788 172.465 79.0984 173.257 79.3621C174.049 79.6257 174.665 79.8893 175.105 80.1529C175.721 80.5044 176.161 80.856 176.424 81.2514C176.688 81.6029 176.82 82.0862 176.82 82.7013V84.7664C176.82 85.6891 176.468 86.1724 175.809 86.1724C175.457 86.1724 174.885 85.9967 174.137 85.6452C171.629 84.5028 168.813 83.9316 165.689 83.9316C163.181 83.9316 161.201 84.327 159.837 85.1618C158.473 85.9967 157.769 87.2709 157.769 89.0723C157.769 90.3026 158.209 91.3571 159.089 92.1919C159.969 93.0267 161.597 93.8615 163.929 94.6085L170.177 96.5857C173.345 97.5962 175.633 99.0022 176.996 100.804C178.36 102.605 179.02 104.67 179.02 106.955C179.02 108.844 178.624 110.558 177.876 112.052C177.084 113.546 176.029 114.864 174.665 115.918C173.301 117.017 171.673 117.808 169.781 118.379C167.801 118.994 165.733 119.301 163.489 119.301V119.301Z" fill="#252F3E"/>
<path fill-rule="evenodd" clip-rule="evenodd" d="M171.805 140.655C157.329 151.332 136.298 157 118.214 157C92.8707 157 70.0352 147.641 52.7877 132.087C51.4237 130.857 52.6557 129.187 54.2836 130.154C72.9392 140.963 95.9506 147.509 119.754 147.509C135.814 147.509 153.457 144.17 169.693 137.316C172.113 136.217 174.181 138.898 171.805 140.655V140.655Z" fill="#FF9900"/>
<path fill-rule="evenodd" clip-rule="evenodd" d="M177.833 133.801C175.985 131.428 165.601 132.658 160.893 133.23C159.485 133.405 159.265 132.175 160.541 131.252C168.813 125.453 182.408 127.122 183.992 129.056C185.576 131.033 183.552 144.61 175.809 151.112C174.621 152.123 173.477 151.596 174.005 150.278C175.765 145.928 179.68 136.13 177.833 133.801V133.801Z" fill="#FF9900"/>
</g>
</g>
<defs>
<filter id="filter0_d_6_549" x="0" y="0" width="236" height="236" filterUnits="userSpaceOnUse" color-interpolation-filters="sRGB">
<feFlood flood-opacity="0" result="BackgroundImageFix"/>
<feColorMatrix in="SourceAlpha" type="matrix" values="0 0 0 0 0 0 0 0 0 0 0 0 0 0 0 0 0 0 127 0" result="hardAlpha"/>
<feOffset dy="4"/>
<feGaussianBlur stdDeviation="2"/>
<feColorMatrix type="matrix" values="0 0 0 0 0 0 0 0 0 0 0 0 0 0 0 0 0 0 0.25 0"/>
<feBlend mode="normal" in2="BackgroundImageFix" result="effect1_dropShadow_6_549"/>
<feBlend mode="normal" in="SourceGraphic" in2="effect1_dropShadow_6_549" result="shape"/>
</filter>
<clipPath id="clip0_6_549">
<rect width="236" height="236" fill="white"/>
</clipPath>
<clipPath id="clip1_6_549">
<rect width="135" height="79" fill="white" transform="translate(51 78)"/>
</clipPath>
</defs>
</svg>
