<svg width="236" height="236" viewBox="0 0 236 236" fill="none" xmlns="http://www.w3.org/2000/svg">
<g clip-path="url(#clip0_4_202)">
<g filter="url(#filter0_d_4_202)">
<path d="M118 225.5C179.58 225.5 229.5 175.58 229.5 114C229.5 52.4202 179.58 2.5 118 2.5C56.4202 2.5 6.5 52.4202 6.5 114C6.5 175.58 56.4202 225.5 118 225.5Z" stroke="#20232A" stroke-width="5"/>
<path d="M118 204.5C167.982 204.5 208.5 163.982 208.5 114C208.5 64.0182 167.982 23.5 118 23.5C68.0182 23.5 27.5 64.0182 27.5 114C27.5 163.982 68.0182 204.5 118 204.5Z" fill="#20232A" stroke="#20232A"/>
<g clip-path="url(#clip1_4_202)">
<path d="M173.498 86.6677C173.497 84.4367 173.044 82.4653 172.129 80.7739C171.229 79.1096 169.883 77.7152 168.076 76.6126C153.165 67.5507 138.239 58.5164 123.333 49.4452C119.314 47 115.418 47.0896 111.429 49.5699C105.494 53.2587 75.7788 71.202 66.9242 76.6075C63.2775 78.833 61.5031 82.2381 61.5022 86.6635C61.4965 104.888 61.5022 123.112 61.4965 141.336C61.4965 143.518 61.9308 145.451 62.806 147.117C63.7057 148.832 65.0713 150.264 66.9193 151.392C75.7745 156.797 105.493 174.739 111.427 178.429C115.418 180.911 119.314 181 123.334 178.554C138.241 169.483 153.168 160.448 168.081 151.386C169.929 150.259 171.295 148.826 172.194 147.113C173.068 145.446 173.503 143.513 173.503 141.331C173.503 141.331 173.503 104.892 173.498 86.6677Z" fill="#A179DC"/>
<path d="M117.671 113.822L62.806 147.118C63.7057 148.832 65.0712 150.264 66.9193 151.392C75.7744 156.798 105.493 174.739 111.427 178.43C115.418 180.911 119.314 181 123.334 178.554C138.241 169.483 153.168 160.448 168.081 151.386C169.929 150.259 171.295 148.826 172.194 147.113L117.671 113.822Z" fill="#280068"/>
<path d="M173.498 86.6677C173.497 84.4368 173.044 82.4654 172.129 80.7739L117.671 113.823L172.194 147.113C173.068 145.446 173.503 143.513 173.503 141.331C173.503 141.331 173.503 104.892 173.498 86.6677" fill="#390091"/>
<path d="M149.974 101.375V107.599H155.879V101.375H158.832V107.599H164.736V110.711H158.832V116.934H164.736V120.046H158.832V126.269H155.879V120.046H149.974V126.269H147.022V120.046H141.117V116.934H147.022V110.711H141.117V107.599H147.022V101.375H149.974ZM155.879 110.71H149.974V116.934H155.879V110.71Z" fill="white"/>
<path d="M117.792 70.1198C133.193 70.1198 146.64 78.9356 153.843 92.0396L153.772 91.9135L135.651 102.91C132.081 96.5394 125.537 92.2396 118.028 92.1509L117.791 92.1495C106.342 92.1495 97.0604 101.932 97.0604 114C97.0566 117.803 97.9994 121.541 99.7946 124.84C103.368 131.415 110.086 135.85 117.792 135.85C125.546 135.85 132.302 131.359 135.857 124.714L135.77 124.873L153.864 135.921C146.74 148.914 133.478 157.702 118.256 157.877L117.792 157.88C102.342 157.88 88.8569 149.01 81.6724 135.837C78.1651 129.406 76.1584 121.95 76.1584 114C76.1584 89.7656 94.7977 70.1193 117.791 70.1193L117.792 70.1198Z" fill="white"/>
</g>
</g>
</g>
<defs>
<filter id="filter0_d_4_202" x="0" y="0" width="236" height="236" filterUnits="userSpaceOnUse" color-interpolation-filters="sRGB">
<feFlood flood-opacity="0" result="BackgroundImageFix"/>
<feColorMatrix in="SourceAlpha" type="matrix" values="0 0 0 0 0 0 0 0 0 0 0 0 0 0 0 0 0 0 127 0" result="hardAlpha"/>
<feOffset dy="4"/>
<feGaussianBlur stdDeviation="2"/>
<feColorMatrix type="matrix" values="0 0 0 0 0 0 0 0 0 0 0 0 0 0 0 0 0 0 0.25 0"/>
<feBlend mode="normal" in2="BackgroundImageFix" result="effect1_dropShadow_4_202"/>
<feBlend mode="normal" in="SourceGraphic" in2="effect1_dropShadow_4_202" result="shape"/>
</filter>
<clipPath id="clip0_4_202">
<rect width="236" height="236" fill="white"/>
</clipPath>
<clipPath id="clip1_4_202">
<rect width="113" height="134" fill="white" transform="translate(61 47)"/>
</clipPath>
</defs>
</svg>
