<svg width="236" height="236" viewBox="0 0 236 236" fill="none" xmlns="http://www.w3.org/2000/svg">
<g clip-path="url(#clip0_4_198)">
<g filter="url(#filter0_d_4_198)">
<path d="M118 225.5C179.58 225.5 229.5 175.58 229.5 114C229.5 52.4202 179.58 2.5 118 2.5C56.4202 2.5 6.5 52.4202 6.5 114C6.5 175.58 56.4202 225.5 118 225.5Z" stroke="#20232A" stroke-width="5"/>
<path d="M118 204.5C167.982 204.5 208.5 163.982 208.5 114C208.5 64.0182 167.982 23.5 118 23.5C68.0182 23.5 27.5 64.0182 27.5 114C27.5 163.982 68.0182 204.5 118 204.5Z" fill="#20232A" stroke="#20232A"/>
<g clip-path="url(#clip1_4_198)">
<path d="M173.81 86.4144C173.809 84.1673 173.353 82.1817 172.431 80.4776C171.525 78.8018 170.169 77.3973 168.349 76.2868C153.33 67.1594 138.297 58.0599 123.283 48.9233C119.235 46.4603 115.311 46.5501 111.293 49.0484C105.315 52.7642 75.3854 70.8371 66.4668 76.2817C62.7939 78.5227 61.0066 81.9524 61.0057 86.4102C61 104.766 61.0057 123.121 61 141.477C61.0009 143.675 61.4374 145.622 62.3189 147.301C63.2251 149.027 64.6006 150.47 66.462 151.606C75.381 157.05 105.315 175.122 111.291 178.839C115.311 181.338 119.235 181.428 123.284 178.964C138.299 169.827 153.333 160.728 168.354 151.6C170.215 150.465 171.591 149.021 172.497 147.296C173.377 145.617 173.815 143.67 173.815 141.472C173.815 141.472 173.815 104.771 173.81 86.4144" fill="#5C8DBC"/>
<path d="M117.58 113.765L62.3189 147.301C63.2251 149.027 64.6005 150.47 66.4619 151.606C75.381 157.05 105.315 175.122 111.291 178.839C115.311 181.338 119.235 181.428 123.284 178.964C138.299 169.827 153.333 160.728 168.354 151.6C170.215 150.465 171.591 149.021 172.497 147.296L117.58 113.765" fill="#1A4674"/>
<path d="M101.213 123.698C104.428 129.615 110.473 133.606 117.408 133.606C124.385 133.606 130.465 129.565 133.664 123.584L117.58 113.765L101.213 123.698" fill="#1A4674"/>
<path d="M173.81 86.4144C173.809 84.1673 173.353 82.1817 172.431 80.4776L117.58 113.765L172.497 147.296C173.377 145.617 173.815 143.67 173.815 141.472C173.815 141.472 173.815 104.771 173.81 86.4144" fill="#1B598E"/>
<path d="M170.79 116.162H166.499V120.686H162.206V116.162H157.916V111.639H162.206V107.116H166.499V111.639H170.79V116.162ZM155.131 116.162H150.84V120.686H146.549V116.162H142.258V111.639H146.549V107.116H150.84V111.639H155.131V116.162Z" fill="white"/>
<path d="M133.664 123.585C130.465 129.565 124.385 133.606 117.408 133.606C110.473 133.606 104.428 129.615 101.213 123.698C99.5972 120.73 98.7488 117.366 98.7522 113.944C98.7522 103.085 107.105 94.2815 117.408 94.2815C124.298 94.2815 130.311 98.2224 133.542 104.079L149.848 94.1824C143.367 82.3906 131.267 74.4575 117.408 74.4575C96.7164 74.4575 79.9434 92.1363 79.9434 113.944C79.9434 121.098 81.7492 127.807 84.9053 133.594C91.3701 145.448 103.505 153.43 117.408 153.43C131.336 153.43 143.49 145.416 149.946 133.527L133.664 123.585Z" fill="white"/>
</g>
</g>
</g>
<defs>
<filter id="filter0_d_4_198" x="0" y="0" width="236" height="236" filterUnits="userSpaceOnUse" color-interpolation-filters="sRGB">
<feFlood flood-opacity="0" result="BackgroundImageFix"/>
<feColorMatrix in="SourceAlpha" type="matrix" values="0 0 0 0 0 0 0 0 0 0 0 0 0 0 0 0 0 0 127 0" result="hardAlpha"/>
<feOffset dy="4"/>
<feGaussianBlur stdDeviation="2"/>
<feColorMatrix type="matrix" values="0 0 0 0 0 0 0 0 0 0 0 0 0 0 0 0 0 0 0.25 0"/>
<feBlend mode="normal" in2="BackgroundImageFix" result="effect1_dropShadow_4_198"/>
<feBlend mode="normal" in="SourceGraphic" in2="effect1_dropShadow_4_198" result="shape"/>
</filter>
<clipPath id="clip0_4_198">
<rect width="236" height="236" fill="white"/>
</clipPath>
<clipPath id="clip1_4_198">
<rect width="113" height="134" fill="white" transform="translate(61 47)"/>
</clipPath>
</defs>
</svg>
