<svg width="236" height="236" viewBox="0 0 236 236" fill="none" xmlns="http://www.w3.org/2000/svg">
<g clip-path="url(#clip0_4_194)">
<g filter="url(#filter0_d_4_194)">
<path d="M118 225.5C179.58 225.5 229.5 175.58 229.5 114C229.5 52.4202 179.58 2.5 118 2.5C56.4202 2.5 6.5 52.4202 6.5 114C6.5 175.58 56.4202 225.5 118 225.5Z" stroke="#20232A" stroke-width="5"/>
<path d="M118 204.5C167.982 204.5 208.5 163.982 208.5 114C208.5 64.0182 167.982 23.5 118 23.5C68.0182 23.5 27.5 64.0182 27.5 114C27.5 163.982 68.0182 204.5 118 204.5Z" fill="#20232A" stroke="#20232A"/>
<path d="M172.403 88.4864C172.445 86.566 171.984 84.6682 171.064 82.9827C170.112 81.3534 168.738 80.0118 167.089 79.0992C152.466 70.6369 137.837 62.1863 123.204 53.7476C119.264 51.4641 115.445 51.5451 111.53 53.8641C105.71 57.2919 76.5665 74.0461 67.8826 79.0941C64.3059 81.17 62.5681 84.3497 62.5681 88.4813V139.519C62.5312 141.398 62.9747 143.256 63.8563 144.916C64.8095 146.595 66.2084 147.976 67.8977 148.906C76.5817 153.969 105.73 170.703 111.55 174.146C115.465 176.465 119.284 176.546 123.229 174.262C137.849 165.797 152.477 157.343 167.114 148.901C168.803 147.971 170.202 146.59 171.155 144.911C172.037 143.251 172.48 141.393 172.444 139.514V88.4864H172.403Z" fill="#004482"/>
<path d="M172.413 139.519C172.451 141.399 172.008 143.257 171.125 144.916C170.908 145.311 170.664 145.69 170.393 146.05L117.486 114L167.089 79.0992C168.737 80.0122 170.108 81.3538 171.059 82.9827C171.983 84.6668 172.446 86.5653 172.403 88.4864C172.413 105.499 172.413 139.519 172.413 139.519V139.519Z" fill="#00599C"/>
<path d="M171.059 82.9827L63.8412 144.916C62.9634 143.257 62.5235 141.401 62.5631 139.524V88.4814C62.5631 84.3498 64.3059 81.1701 67.8775 79.0941C76.5665 74.0461 105.71 57.2919 111.535 53.854C115.44 51.535 119.264 51.454 123.204 53.7375C137.824 62.2032 152.452 70.6571 167.089 79.0992C168.737 80.0122 170.108 81.3538 171.059 82.9827V82.9827Z" fill="#659AD2"/>
<path d="M119.607 134.617C115.997 134.623 112.452 133.656 109.341 131.818C106.231 129.981 103.67 127.34 101.926 124.172C101.748 123.855 101.579 123.531 101.421 123.2C99.2692 118.746 98.8217 113.655 100.163 108.892C101.505 104.129 104.543 100.025 108.701 97.3562C112.86 94.6876 117.85 93.64 122.728 94.4119C127.605 95.1838 132.031 97.7215 135.167 101.544C135.434 101.869 135.672 102.208 135.94 102.557C136.061 102.724 136.182 102.891 136.293 103.063L154.01 92.8357C153.579 92.1404 153.127 91.4653 152.656 90.8104C152.408 90.4611 152.151 90.1269 151.908 89.7978C145.75 81.78 136.819 76.3661 126.874 74.6237C116.93 72.8813 106.695 74.937 98.1887 80.3853C89.6822 85.8336 83.5214 94.279 80.9215 104.056C78.3217 113.833 79.4715 124.231 84.1441 133.2C84.3159 133.524 84.4927 133.843 84.6493 134.162C88.081 140.23 93.0199 145.307 98.9864 148.898C104.953 152.489 111.744 154.473 118.702 154.657C125.659 154.842 132.546 153.22 138.693 149.95C144.841 146.68 150.04 141.873 153.787 135.995L136.465 125.499C134.631 128.301 132.13 130.603 129.187 132.195C126.244 133.787 122.952 134.619 119.607 134.617V134.617Z" fill="white"/>
</g>
</g>
<defs>
<filter id="filter0_d_4_194" x="0" y="0" width="236" height="236" filterUnits="userSpaceOnUse" color-interpolation-filters="sRGB">
<feFlood flood-opacity="0" result="BackgroundImageFix"/>
<feColorMatrix in="SourceAlpha" type="matrix" values="0 0 0 0 0 0 0 0 0 0 0 0 0 0 0 0 0 0 127 0" result="hardAlpha"/>
<feOffset dy="4"/>
<feGaussianBlur stdDeviation="2"/>
<feColorMatrix type="matrix" values="0 0 0 0 0 0 0 0 0 0 0 0 0 0 0 0 0 0 0.25 0"/>
<feBlend mode="normal" in2="BackgroundImageFix" result="effect1_dropShadow_4_194"/>
<feBlend mode="normal" in="SourceGraphic" in2="effect1_dropShadow_4_194" result="shape"/>
</filter>
<clipPath id="clip0_4_194">
<rect width="236" height="236" fill="white"/>
</clipPath>
</defs>
</svg>
