<svg width="244" height="236" viewBox="0 0 244 236" fill="none" xmlns="http://www.w3.org/2000/svg">
<g clip-path="url(#clip0_6_572)">
<g filter="url(#filter0_d_6_572)">
<path d="M122 225.5C185.667 225.5 237.28 175.58 237.28 114C237.28 52.4202 185.667 2.5 122 2.5C58.3328 2.5 6.72034 52.4202 6.72034 114C6.72034 175.58 58.3328 225.5 122 225.5Z" stroke="#20232A" stroke-width="5"/>
<path d="M122 204.5C173.676 204.5 215.568 163.982 215.568 114C215.568 64.0182 173.676 23.5 122 23.5C70.3239 23.5 28.4322 64.0182 28.4322 114C28.4322 163.982 70.3239 204.5 122 204.5Z" fill="#20232A" stroke="#20232A"/>
<g clip-path="url(#clip1_6_572)">
<path d="M72.6306 171.791C70.3945 171.791 69.7444 170.485 69.7444 168.529C69.7444 167.877 69.8261 167.142 69.9266 166.367C70.4164 162.984 71.6123 161.049 74.4985 161.049C76.4505 161.049 77.4023 161.924 77.4023 163.514V164.289H79.3389C79.3604 164.289 79.3604 163.576 79.3604 163.413C79.3604 161.09 77.9575 158.887 74.5015 158.887C69.8054 158.887 67.8744 161.445 67.1629 166.46C67.061 167.133 67 167.761 67 168.431C67 171.387 68.1597 174.076 72.3062 174.076C75.4567 174.076 77.328 172.535 78.425 170.639L76.5747 169.39C75.3759 171.286 74.0739 171.791 72.6306 171.791ZM85.3365 162.455C81.575 162.455 79.9499 164.39 79.4012 168.242C79.3368 168.688 79.3023 169.138 79.2981 169.588C79.2981 172.074 80.457 174.053 83.668 174.053C87.4295 174.053 89.0765 172.034 89.6252 168.242C89.6862 167.754 89.727 167.305 89.727 166.857C89.7279 164.33 88.5291 162.455 85.3365 162.455ZM86.9018 168.243C86.4949 171.037 85.6218 171.893 83.9739 171.893C82.6535 171.893 82.0034 171.342 82.0034 169.691C82.0034 169.283 82.0446 168.794 82.1254 168.243C82.5323 165.472 83.3453 164.616 85.0121 164.616C86.354 164.616 87.0239 165.166 87.0239 166.837C87.0239 167.245 86.9826 167.714 86.9018 168.243ZM99.1823 159.089L98.5528 162.831C98.5124 163.157 98.533 163.048 98.6559 163.354C98.0664 162.906 97.0085 162.61 96.297 162.61C92.9222 162.61 91.0324 164.142 90.4231 168.422C90.352 168.874 90.3179 169.331 90.3213 169.788C90.3213 172.908 92.1505 174.071 94.6096 174.071C95.6477 174.071 96.6635 174.093 97.4554 173.421L97.6578 174.689H99.6098L101.886 159.089H99.1823ZM97.2513 171.301C96.3373 171.85 95.4436 171.974 94.8949 171.974C93.4107 171.974 93.0043 171.199 93.0043 169.956C93.0043 169.487 93.0653 168.938 93.1473 168.345C93.614 165.105 94.6512 164.533 95.9932 164.533C96.8663 164.533 97.5366 164.676 98.1682 165.024L97.2513 171.301ZM107.823 162.455C104.102 162.455 102.355 164.227 101.765 168.242C101.703 168.732 101.662 169.201 101.662 169.649C101.662 172.401 103.065 174.053 106.154 174.053C108.553 174.053 110.343 173.053 111.298 171.219L109.245 170.383C108.656 171.279 107.863 171.891 106.46 171.891C104.956 171.891 104.346 171.485 104.346 170.139C104.346 169.874 104.367 169.488 104.408 169.488H111.745C111.848 168.448 111.969 167.713 111.969 167.103C111.969 165.066 111.197 162.455 107.823 162.455ZM109.225 167.409H104.753C105.201 166.369 105.952 164.759 107.497 164.759C108.696 164.759 109.286 165.462 109.286 166.665C109.285 166.869 109.267 167.409 109.225 167.409ZM119.791 162.209L120.035 160.129H114.302L114.059 162.209H115.563L113.938 172.609H112.432L112.189 174.689H117.921L118.166 172.609H116.661L118.287 162.209H119.791ZM131.44 165.329L132.173 163.249H130.201L128.779 163.544C127.986 163.035 126.908 162.653 125.893 162.653C122.985 162.653 120.506 164.061 120.506 167.262C120.506 168.16 120.831 168.885 121.216 169.375C120.608 169.7 120.079 170.245 120.079 170.98C120.079 171.306 120.2 171.639 120.445 171.945C119.224 172.68 118.474 173.898 118.474 175.323C118.474 178.077 121.34 178.664 123.535 178.664C126.299 178.664 129.593 178.031 129.593 174.504C129.593 173.302 128.841 172.363 126.666 171.955L122.743 171.22C122.296 171.138 122.195 170.995 122.195 170.791C122.195 170.485 122.379 170.323 122.683 170.323L122.947 170.364C123.476 170.486 124.086 170.548 124.716 170.548C127.542 170.548 130.062 169.324 130.062 166.144C130.062 165.695 129.981 165.391 129.778 164.902C130.123 165.065 130.571 165.33 130.753 165.33H131.44V165.329ZM125.851 173.767C126.623 173.91 126.887 174.195 126.887 174.705C126.887 176.356 125.118 176.56 123.838 176.56C121.887 176.56 121.155 176.092 121.155 175.051C121.155 174.133 121.419 173.706 122.03 173.053L125.851 173.767ZM125.016 168.427C123.837 168.427 123.187 168 123.187 166.98C123.187 165.472 124.061 164.595 125.586 164.595C126.806 164.595 127.396 165.105 127.396 166.102C127.396 167.611 126.541 168.427 125.016 168.427ZM138.662 162.455C137.523 162.455 136.508 163.015 135.247 164.013L135.064 163.249H132.827L131.262 174.689H133.966L135.145 166.014C135.939 165.525 136.914 164.815 137.747 164.815C138.763 164.815 139.13 165.306 139.13 166.243C139.13 166.468 139.108 167.133 139.068 167.377L138.073 174.689H140.777L141.772 167.317C141.813 166.973 141.853 166.404 141.853 166.079C141.855 164.14 140.938 162.455 138.662 162.455ZM146.989 171.823L147.01 171.543L148.188 163.249H143.695L143.412 165.329H145.383C145.22 165.329 145.118 165.511 145.099 165.675L144.285 171.199C144.245 171.465 144.225 172.018 144.225 172.241C144.225 173.668 144.997 174.689 146.582 174.689H147.964L148.269 172.609H147.396C147.09 172.609 146.989 172.067 146.989 171.823ZM148.737 159.089H146.094C145.931 159.089 145.931 158.489 145.912 158.693L145.545 161.624C145.524 161.808 145.524 162.21 145.687 162.21H148.33C148.493 162.21 148.493 161.497 148.513 161.312L148.88 159.05C148.901 158.846 148.901 159.089 148.737 159.089ZM154.25 171.892C153.58 171.892 153.255 171.607 153.255 170.996L153.275 170.954L154.129 165.329H157.218L158.153 163.249H154.413L155.043 158.672L152.198 159.584L151.689 163.249H150.043L149.759 165.329H151.669C151.486 166.369 151.303 165.694 151.283 165.899L150.551 170.832C150.511 171.057 150.511 171.219 150.511 171.422C150.511 173.359 151.933 174.084 153.643 174.084C155.227 174.084 156.508 173.62 157.505 172.783L156.244 171.227C155.612 171.614 155.186 171.892 154.25 171.892ZM164.17 162.455C160.451 162.455 158.703 164.227 158.113 168.242C158.052 168.732 158.011 169.201 158.011 169.649C158.011 172.401 159.413 174.053 162.503 174.053C164.902 174.053 166.692 173.053 167.646 171.219L165.594 170.383C165.005 171.279 164.211 171.891 162.808 171.891C161.305 171.891 160.694 171.485 160.694 170.139C160.694 169.874 160.716 169.488 160.757 169.488H168.094C168.196 168.448 168.318 167.713 168.318 167.103C168.318 165.066 167.546 162.455 164.17 162.455ZM165.574 167.409H161.102C161.548 166.369 162.3 164.759 163.846 164.759C165.045 164.759 165.635 165.462 165.635 166.665C165.634 166.869 165.614 167.409 165.574 167.409ZM175.799 162.454C174.823 162.454 173.908 163.015 172.993 163.89L172.831 163.249H170.596L169.03 174.689H171.754L172.953 165.83C173.665 165.403 174.478 165.038 175.25 165.038C175.739 165.038 176.206 164.96 176.652 165.021L177 162.658C176.591 162.576 176.185 162.454 175.799 162.454ZM106.763 150.895C100.61 148.228 94.8523 141.45 94.8386 134.514C94.8218 126.953 99.6008 120.533 105.545 116.314C104.83 119.021 104.44 121.497 106.211 123.918C107.856 126.17 110.739 127.264 113.46 126.67C119.82 125.274 120.112 118.264 116.341 114.179C112.614 110.135 109.008 105.566 110.427 99.701C111.137 96.7608 112.937 94.0067 115.218 92.0381C113.465 96.6578 118.447 101.214 121.729 103.483C127.423 107.42 133.67 110.396 138.906 115.011C144.412 119.862 148.479 126.421 147.658 134.028C146.768 142.273 140.234 148.007 132.905 150.902C148.392 147.475 164.394 135.422 164.722 118.199C164.994 104.03 155.3 93.126 143.293 86.8832L142.665 86.5398C142.995 87.3416 143.103 88.0237 143.09 88.6342C143.198 88.184 143.271 87.7212 143.291 87.2438C143.289 87.811 143.215 88.3755 143.071 88.9242L143.09 88.6342C142.912 89.3865 142.612 90.1042 142.201 90.7588L142.377 90.5688C139.982 94.553 133.497 95.4182 130.293 91.2927C125.143 84.6565 130.401 77.5015 131.136 70.474C132.057 61.6667 126.549 53.1165 119.72 48C123.481 54.1015 118.526 62.1738 114.561 66.6867C110.716 71.0613 106.041 74.7138 101.797 78.6885C97.238 82.9575 92.8552 87.4545 89.1079 92.4651C81.6132 102.494 77.025 115.107 80.3968 127.619C83.7664 140.122 94.5666 148.081 106.763 150.895Z" fill="#EE4323"/>
</g>
</g>
</g>
<defs>
<filter id="filter0_d_6_572" x="0.220337" y="0" width="243.559" height="236" filterUnits="userSpaceOnUse" color-interpolation-filters="sRGB">
<feFlood flood-opacity="0" result="BackgroundImageFix"/>
<feColorMatrix in="SourceAlpha" type="matrix" values="0 0 0 0 0 0 0 0 0 0 0 0 0 0 0 0 0 0 127 0" result="hardAlpha"/>
<feOffset dy="4"/>
<feGaussianBlur stdDeviation="2"/>
<feColorMatrix type="matrix" values="0 0 0 0 0 0 0 0 0 0 0 0 0 0 0 0 0 0 0.25 0"/>
<feBlend mode="normal" in2="BackgroundImageFix" result="effect1_dropShadow_6_572"/>
<feBlend mode="normal" in="SourceGraphic" in2="effect1_dropShadow_6_572" result="shape"/>
</filter>
<clipPath id="clip0_6_572">
<rect width="244" height="236" fill="white"/>
</clipPath>
<clipPath id="clip1_6_572">
<rect width="110" height="131" fill="white" transform="translate(67 48)"/>
</clipPath>
</defs>
</svg>
