<svg width="236" height="236" viewBox="0 0 236 236" fill="none" xmlns="http://www.w3.org/2000/svg">
<g clip-path="url(#clip0_4_210)">
<g filter="url(#filter0_d_4_210)">
<path d="M118 225.5C179.58 225.5 229.5 175.58 229.5 114C229.5 52.4202 179.58 2.5 118 2.5C56.4202 2.5 6.5 52.4202 6.5 114C6.5 175.58 56.4202 225.5 118 225.5Z" stroke="#20232A" stroke-width="5"/>
<path d="M118 204.5C167.982 204.5 208.5 163.982 208.5 114C208.5 64.0182 167.982 23.5 118 23.5C68.0182 23.5 27.5 64.0182 27.5 114C27.5 163.982 68.0182 204.5 118 204.5Z" fill="#20232A" stroke="#20232A"/>
<g clip-path="url(#clip1_4_210)">
<path d="M71.2945 164.696L62 51.213L173 51.4411L163.172 164.696L117.919 177.787L71.2945 164.696Z" fill="#1B73BA"/>
<path d="M117.919 166.827V62.021L163.629 62.173L155.478 155.943L117.919 166.827Z" fill="#1C88C7"/>
<path d="M152.278 75.4171H81.9603L83.8652 89.1164H117.233L84.3987 103.198L86.3028 116.441H134.68L132.927 134.935L116.548 138.133L101.692 134.327L100.549 123.823H86.9124L88.7403 145.668L117.995 153.812L146.031 144.907L149.612 102.207H119.975L152.277 88.8123L152.278 75.4171Z" fill="white"/>
</g>
</g>
</g>
<defs>
<filter id="filter0_d_4_210" x="0" y="0" width="236" height="236" filterUnits="userSpaceOnUse" color-interpolation-filters="sRGB">
<feFlood flood-opacity="0" result="BackgroundImageFix"/>
<feColorMatrix in="SourceAlpha" type="matrix" values="0 0 0 0 0 0 0 0 0 0 0 0 0 0 0 0 0 0 127 0" result="hardAlpha"/>
<feOffset dy="4"/>
<feGaussianBlur stdDeviation="2"/>
<feColorMatrix type="matrix" values="0 0 0 0 0 0 0 0 0 0 0 0 0 0 0 0 0 0 0.25 0"/>
<feBlend mode="normal" in2="BackgroundImageFix" result="effect1_dropShadow_4_210"/>
<feBlend mode="normal" in="SourceGraphic" in2="effect1_dropShadow_4_210" result="shape"/>
</filter>
<clipPath id="clip0_4_210">
<rect width="236" height="236" fill="white"/>
</clipPath>
<clipPath id="clip1_4_210">
<rect width="111" height="127" fill="white" transform="translate(62 51)"/>
</clipPath>
</defs>
</svg>
