<svg width="244" height="236" viewBox="0 0 244 236" fill="none" xmlns="http://www.w3.org/2000/svg">
<g clip-path="url(#clip0_3_84)">
<g filter="url(#filter0_d_3_84)">
<path d="M122 225.5C185.667 225.5 237.28 175.58 237.28 114C237.28 52.4202 185.667 2.5 122 2.5C58.3328 2.5 6.72034 52.4202 6.72034 114C6.72034 175.58 58.3328 225.5 122 225.5Z" stroke="#20232A" stroke-width="5"/>
<path d="M122 204.5C173.676 204.5 215.568 163.982 215.568 114C215.568 64.0182 173.676 23.5 122 23.5C70.3239 23.5 28.4322 64.0182 28.4322 114C28.4322 163.982 70.3239 204.5 122 204.5Z" fill="#20232A" stroke="#20232A"/>
<path fill-rule="evenodd" clip-rule="evenodd" d="M84.4007 118.175C84.5781 121.167 87.6831 119.799 89.1025 118.859C90.4332 117.919 90.8768 118.688 90.9655 116.893C91.0542 115.697 91.143 114.585 91.143 113.389C89.1025 113.218 86.8847 113.645 85.1991 114.842C84.4007 115.44 82.7151 117.406 84.4007 118.175" fill="#F6D2A2"/>
<path d="M86.0863 120.312C85.4653 120.312 84.312 120.055 84.1346 118.346C83.6023 118.004 83.4249 117.577 83.4249 117.32C83.3362 116.295 84.4894 115.098 85.1104 114.671C86.5299 113.645 88.3928 113.132 90.3446 113.132H91.4978V113.389C91.5865 114.329 91.4978 115.269 91.4091 116.124C91.4091 116.38 91.4091 116.637 91.3204 116.893C91.2317 118.175 90.9655 118.346 90.3446 118.603C90.0784 118.688 89.8123 118.773 89.3687 119.115C88.9251 119.372 87.417 120.312 86.0863 120.312V120.312ZM90.3446 113.645C88.4816 113.645 86.796 114.158 85.4653 115.098C84.8443 115.526 83.9572 116.551 84.0459 117.235C84.0459 117.491 84.2233 117.748 84.5782 117.919L84.7556 118.004V118.175C84.8443 119.543 85.554 119.714 86.0863 119.714C86.9734 119.714 88.2154 119.115 89.0138 118.603C89.5461 118.261 89.901 118.175 90.1671 118.09C90.6107 117.919 90.6994 117.919 90.7881 116.893C90.7881 116.637 90.7881 116.38 90.8768 116.124C90.9655 115.355 90.9655 114.5 90.9655 113.731C90.6994 113.645 90.522 113.645 90.3446 113.645V113.645Z" fill="black"/>
<path fill-rule="evenodd" clip-rule="evenodd" d="M84.4007 118.175C84.8443 118.004 85.3765 117.919 85.6427 117.491Z" fill="#C6B198"/>
<path d="M84.4007 118.432C84.312 118.432 84.1346 118.346 84.1346 118.261C84.0459 118.09 84.1346 117.919 84.312 117.919C84.4007 117.919 84.4895 117.833 84.4895 117.833C84.8443 117.662 85.1992 117.577 85.3766 117.32C85.4653 117.235 85.6427 117.15 85.8202 117.235C85.9089 117.32 85.9976 117.491 85.9089 117.662C85.554 118.09 85.1104 118.261 84.7556 118.346L84.5782 118.432H84.4007Z" fill="black"/>
<path fill-rule="evenodd" clip-rule="evenodd" d="M91.6753 82.0218C79.6102 78.7739 88.5703 63.9878 98.2401 70.0561L91.6753 82.0218Z" fill="#6AD7E5"/>
<path d="M91.8527 82.3636L91.5865 82.2782C85.3766 80.5688 85.4653 76.2953 85.6427 75.0133C86.0863 71.7655 89.28 68.3467 93.5382 68.3467C95.2238 68.3467 96.8206 68.8595 98.4175 69.8852L98.6836 70.0561L91.8527 82.3636ZM93.5382 68.945C89.5461 68.945 86.6186 72.1073 86.175 75.0988C85.7314 78.1757 87.6831 80.5688 91.4978 81.6799L97.7965 70.1416C96.4658 69.3723 95.0464 68.945 93.5382 68.945V68.945Z" fill="black"/>
<path fill-rule="evenodd" clip-rule="evenodd" d="M145.17 68.945C154.662 62.5348 163.356 77.0645 152.267 80.7397L145.17 68.945Z" fill="#6AD7E5"/>
<path d="M152.178 81.0816L144.815 68.8595L145.081 68.6886C146.766 67.5775 148.452 66.9792 150.138 66.9792C154.218 66.9792 157.146 70.227 157.767 73.3894C158.033 74.6714 158.299 79.0303 152.444 80.9107L152.178 81.0816ZM145.613 69.1159L152.444 80.4833C155.904 79.2867 157.678 76.7227 157.146 73.6458C156.614 70.7398 153.864 67.7484 150.138 67.7484C148.629 67.663 147.121 68.0903 145.613 69.1159Z" fill="black"/>
<path fill-rule="evenodd" clip-rule="evenodd" d="M147.299 155.44C149.694 156.893 154.13 161.252 150.492 163.388C147.033 166.465 145.081 159.97 141.976 159.115C143.307 157.405 144.992 155.782 147.299 155.44Z" fill="#F6D2A2"/>
<path d="M148.629 164.499C147.21 164.499 145.968 163.132 144.904 161.85C143.928 160.824 142.952 159.713 141.887 159.371L141.444 159.286L141.71 158.944C142.774 157.491 144.549 155.611 147.21 155.183H147.299L147.387 155.269C148.896 156.209 152.178 158.858 152.089 161.337C152.089 162.277 151.557 163.046 150.581 163.645C149.96 164.243 149.339 164.499 148.629 164.499V164.499ZM142.42 158.944C143.484 159.371 144.371 160.482 145.258 161.423C146.323 162.705 147.387 163.816 148.541 163.816C149.073 163.816 149.605 163.559 150.138 163.046H150.226C151.025 162.534 151.468 161.935 151.468 161.166C151.468 159.2 148.896 156.722 147.121 155.611C145.524 156.038 143.928 157.064 142.42 158.944ZM150.492 163.645C150.404 163.645 150.315 163.559 150.226 163.474C150.049 163.132 149.871 162.705 149.783 162.363C149.517 161.679 149.25 160.995 148.718 160.482C148.629 160.397 148.629 160.226 148.718 160.055C148.807 159.97 148.984 159.97 149.162 160.055C149.783 160.653 150.138 161.423 150.404 162.192L150.847 163.217C150.936 163.388 150.847 163.559 150.759 163.645H150.492Z" fill="black"/>
<path fill-rule="evenodd" clip-rule="evenodd" d="M104.006 160.397C101.168 160.824 99.5707 163.303 97.1755 164.585C94.9576 165.867 94.0705 164.158 93.8931 163.816C93.5382 163.645 93.5382 163.987 93.0059 163.474C90.9655 160.311 95.1351 158.004 97.3529 156.465C100.458 155.782 102.41 158.346 104.006 160.397" fill="#F6D2A2"/>
<path d="M95.6673 165.269C94.5141 165.269 93.8931 164.328 93.7156 163.987H93.6269C93.3608 163.987 93.1834 163.901 92.8285 163.559V163.474C90.8768 160.482 94.2479 158.175 96.4658 156.636L97.2642 156.123H97.4416C97.7965 156.038 98.0626 156.038 98.4175 156.038C101.079 156.038 102.764 158.26 104.184 160.055L104.627 160.653L104.095 160.739C102.41 160.995 101.168 162.021 99.9256 163.046C99.1272 163.73 98.3288 164.328 97.4416 164.841C96.7319 165.098 96.1996 165.269 95.6673 165.269V165.269ZM93.7156 163.474C93.8044 163.474 93.8931 163.474 94.0705 163.559H94.1592L94.2479 163.645C94.4254 163.901 94.8689 164.67 95.7561 164.67C96.1996 164.67 96.6432 164.499 97.0868 164.243C97.9739 163.816 98.7723 163.132 99.482 162.534C100.635 161.593 101.877 160.568 103.474 160.14C102.143 158.431 100.547 156.551 98.3288 156.551C98.0626 156.551 97.7965 156.551 97.5303 156.636L96.8206 157.149C94.5141 158.688 91.6752 160.653 93.3608 163.217C93.4495 163.388 93.5382 163.474 93.7156 163.474V163.474ZM93.8931 164.072C93.7156 164.072 93.5382 163.901 93.6269 163.73C93.7156 162.875 94.1592 162.277 94.6028 161.593C94.8689 161.252 95.0463 160.91 95.2238 160.568C95.3125 160.397 95.4899 160.397 95.5786 160.397C95.7561 160.482 95.7561 160.653 95.7561 160.739C95.5786 161.166 95.3125 161.508 95.0463 161.85C94.6028 162.448 94.2479 162.961 94.1592 163.645C94.1592 163.987 94.0705 164.072 93.8931 164.072V164.072Z" fill="black"/>
<path fill-rule="evenodd" clip-rule="evenodd" d="M92.2075 78.0047C90.6107 77.2355 89.4574 76.1244 90.4332 74.3295C91.3204 72.7056 93.0059 72.8766 94.6028 73.6458L92.2075 78.0047ZM149.783 76.4663C151.38 75.697 152.533 74.586 151.557 72.7911C150.67 71.1672 148.984 71.3381 147.387 72.1073L149.783 76.4663Z" fill="black"/>
<path fill-rule="evenodd" clip-rule="evenodd" d="M160.695 117.748C160.517 120.739 157.412 119.372 155.993 118.432C154.662 117.491 154.218 118.261 154.13 116.466C154.041 115.269 153.952 114.158 153.952 112.962C155.993 112.791 158.211 113.218 159.896 114.415C160.783 115.098 162.38 116.979 160.695 117.748" fill="#F6D2A2"/>
<path d="M159.098 119.885C157.767 119.885 156.259 118.944 155.815 118.688C155.372 118.432 155.106 118.261 154.839 118.175C154.13 117.919 153.952 117.748 153.864 116.466C153.864 116.209 153.864 115.953 153.775 115.697C153.686 114.842 153.597 113.902 153.686 112.962V112.705H154.839C156.791 112.705 158.654 113.218 160.074 114.244C160.695 114.671 161.848 115.867 161.759 116.893C161.759 117.235 161.582 117.662 161.049 117.919C160.872 119.628 159.719 119.885 159.098 119.885V119.885ZM154.218 113.303C154.218 114.073 154.218 114.927 154.307 115.697C154.307 115.953 154.307 116.209 154.396 116.466C154.485 117.491 154.573 117.491 155.017 117.662C155.283 117.748 155.638 117.919 156.17 118.175C156.969 118.688 158.211 119.286 159.098 119.286C159.63 119.286 160.34 119.115 160.428 117.748V117.577L160.606 117.491C160.961 117.32 161.138 117.15 161.138 116.808C161.227 116.124 160.34 115.098 159.719 114.671C158.388 113.731 156.614 113.218 154.839 113.218C154.662 113.303 154.485 113.303 154.218 113.303V113.303Z" fill="black"/>
<path fill-rule="evenodd" clip-rule="evenodd" d="M160.695 117.748C160.251 117.577 159.719 117.491 159.453 117.064Z" fill="#C6B198"/>
<path d="M160.695 118.09H160.606L160.428 118.004C159.985 117.833 159.541 117.748 159.275 117.32C159.186 117.235 159.186 116.979 159.364 116.893C159.453 116.808 159.719 116.808 159.807 116.979C159.985 117.235 160.34 117.32 160.695 117.491C160.783 117.491 160.872 117.577 160.872 117.577C161.049 117.662 161.138 117.833 161.049 117.919C160.961 118.004 160.783 118.09 160.695 118.09Z" fill="black"/>
<path fill-rule="evenodd" clip-rule="evenodd" d="M121.394 62.8767C133.459 62.8767 144.726 64.5006 150.67 75.697C155.993 88.1755 154.041 101.68 154.928 114.927C155.638 126.295 157.146 139.371 151.734 149.884C145.968 160.91 131.596 163.73 119.797 163.303C110.483 162.961 99.3046 160.055 93.9818 151.85C87.8605 142.277 90.6994 128.004 91.1429 117.32C91.6752 104.671 87.5944 91.9362 91.9414 79.6286C96.2883 66.7228 108.353 63.8168 121.394 62.8767" fill="#6AD7E5"/>
<path d="M121.838 163.645H119.62C115.983 163.559 110.483 162.961 105.071 160.824C99.8369 158.773 96.0222 155.867 93.5383 152.021C88.5703 144.243 89.4574 133.56 90.2558 124.073C90.4333 121.679 90.6107 119.457 90.6994 117.32C90.8768 112.876 90.522 108.261 90.0784 103.902C89.3687 95.8677 88.659 87.5772 91.4091 79.5432C93.5383 73.5603 97.3529 69.2869 103.119 66.5519C107.644 64.4151 113.233 63.2186 121.217 62.6203C133.105 62.5348 144.904 64.1587 150.847 75.5261C154.751 84.6713 154.751 94.5002 154.839 103.987C154.839 107.577 154.839 111.252 155.106 114.842C155.194 115.953 155.283 117.064 155.283 118.175C155.993 128.602 156.791 140.397 151.823 149.97C149.339 154.841 144.992 158.431 139.048 160.739C134.258 162.619 128.225 163.645 121.838 163.645V163.645ZM121.394 63.1331C108.886 64.0733 96.6432 66.7228 92.1188 79.7141C89.3687 87.6627 90.0784 95.8677 90.7881 103.816C91.143 108.261 91.5866 112.791 91.4091 117.32C91.3204 119.457 91.143 121.679 90.9656 124.073C90.1671 133.474 89.28 144.072 94.1592 151.679C96.1997 154.841 102.764 162.363 119.709 162.961H121.927C141.532 162.961 148.807 154.585 151.468 149.628C156.348 140.226 155.549 128.431 154.928 118.09C154.839 116.979 154.751 115.868 154.751 114.756C154.573 111.167 154.485 107.492 154.485 103.902C154.396 94.5002 154.396 84.6713 150.581 75.6116C147.92 70.5689 143.928 67.1501 138.427 65.1843C132.75 63.3895 126.362 63.1331 121.394 63.1331V63.1331Z" fill="black"/>
<path fill-rule="evenodd" clip-rule="evenodd" d="M123.523 78.432C125.653 90.5687 146.234 87.3208 143.307 75.0988C140.645 64.1587 122.814 67.2356 123.523 78.432Z" fill="white"/>
<path d="M133.282 86.3807C129.29 86.3807 124.233 84.3294 123.169 78.5175C122.991 75.7825 123.878 73.3039 125.741 71.4236C127.782 69.2869 130.887 68.0903 134.08 68.0903C137.806 68.0903 142.242 69.9706 143.484 75.1842C144.194 78.0902 143.662 80.6543 141.976 82.7055C140.113 84.9277 136.831 86.3807 133.282 86.3807ZM123.79 78.4321C124.233 80.8252 125.386 82.7055 127.249 84.073C128.846 85.2696 131.064 85.8679 133.282 85.8679C136.564 85.8679 139.758 84.5004 141.532 82.3636C143.129 80.4833 143.573 78.0047 142.952 75.2697C141.799 70.398 137.629 68.6886 134.08 68.6886C131.064 68.6886 128.137 69.8852 126.185 71.8509C124.499 73.5603 123.612 75.868 123.79 78.4321V78.4321Z" fill="black"/>
<path fill-rule="evenodd" clip-rule="evenodd" d="M98.9498 80.3978C101.789 90.9105 119.265 88.261 118.644 77.6628C117.846 65.0134 96.1996 67.4065 98.9498 80.3978Z" fill="white"/>
<path d="M108.265 87.4063C104.45 87.4063 100.014 85.6115 98.5949 80.4833C97.9739 77.4919 98.5949 74.7569 100.369 72.7056C102.321 70.398 105.515 69.0305 108.974 69.0305C113.588 69.0305 118.467 71.68 118.822 77.6628C118.999 80.1414 118.201 82.3636 116.426 84.1585C114.563 86.1243 111.458 87.4063 108.265 87.4063ZM108.974 69.6287C105.692 69.6287 102.676 70.9108 100.813 73.0475C99.1272 75.0133 98.5949 77.4919 99.2159 80.3124C100.458 85.0986 104.716 86.808 108.265 86.808C111.281 86.808 114.209 85.6969 116.072 83.7311C117.668 82.1072 118.467 79.9705 118.289 77.6628C118.112 73.9877 115.539 69.6287 108.974 69.6287V69.6287Z" fill="black"/>
<path fill-rule="evenodd" clip-rule="evenodd" d="M126.007 92.9618C126.007 94.5002 126.362 96.2951 126.096 98.0045C125.653 98.7737 124.854 98.8592 124.144 99.1156C123.169 98.9446 122.37 98.3464 121.927 97.4917C121.66 95.6113 122.015 93.731 122.104 91.8507L126.007 92.9618Z" fill="white"/>
<path d="M124.144 99.4574C122.991 99.2865 122.104 98.6027 121.66 97.6626C121.483 96.2951 121.572 95.013 121.66 93.731C121.749 93.1327 121.749 92.5344 121.749 91.9362V91.5943L126.274 92.9618V93.1327C126.274 93.6455 126.362 94.1584 126.362 94.7566C126.451 95.8677 126.54 97.0643 126.362 98.1754V98.2609C126.007 98.9446 125.386 99.1156 124.765 99.372C124.588 99.2865 124.411 99.372 124.144 99.4574ZM122.193 97.4062C122.548 98.1754 123.257 98.6882 124.056 98.8592C124.233 98.7737 124.411 98.7737 124.499 98.6882C125.032 98.5173 125.475 98.3463 125.741 97.919C125.919 96.8934 125.83 95.7823 125.741 94.6712C125.741 94.1584 125.653 93.6455 125.653 93.2182L122.281 92.1926C122.281 92.7054 122.193 93.2182 122.193 93.6455C122.104 95.013 122.015 96.2096 122.193 97.4062V97.4062Z" fill="black"/>
<path fill-rule="evenodd" clip-rule="evenodd" d="M106.757 78.6885C106.757 80.3979 105.426 81.7654 103.829 81.7654C102.232 81.7654 100.901 80.3979 100.901 78.6885C100.901 76.9791 102.232 75.6116 103.829 75.6116C105.426 75.6116 106.757 76.9791 106.757 78.6885Z" fill="black"/>
<path fill-rule="evenodd" clip-rule="evenodd" d="M105.781 79.3722C105.781 79.7996 105.426 80.1414 105.071 80.1414C104.716 80.1414 104.361 79.7996 104.361 79.3722C104.361 78.9449 104.716 78.603 105.071 78.603C105.515 78.603 105.781 78.9449 105.781 79.3722Z" fill="white"/>
<path fill-rule="evenodd" clip-rule="evenodd" d="M131.508 77.9192C131.508 79.6286 130.177 80.9961 128.58 80.9961C126.983 80.9961 125.653 79.6286 125.653 77.9192C125.653 76.2099 126.983 74.8424 128.58 74.8424C130.177 74.8424 131.508 76.2099 131.508 77.9192Z" fill="black"/>
<path fill-rule="evenodd" clip-rule="evenodd" d="M130.621 78.603C130.621 79.0303 130.354 79.3722 129.911 79.3722C129.556 79.3722 129.201 79.0303 129.201 78.603C129.201 78.1756 129.467 77.8338 129.911 77.8338C130.266 77.8338 130.621 78.1756 130.621 78.603ZM117.491 92.7909C116.16 95.7823 118.201 101.851 121.749 97.4062C121.483 95.5259 121.838 93.6455 121.927 91.7652L117.491 92.7909Z" fill="white"/>
<path d="M119.354 99.2865C118.733 99.2865 118.112 98.9446 117.668 98.2609C116.692 96.8934 116.515 94.3293 117.225 92.7054L117.313 92.5345L122.193 91.3379V91.6798L122.104 93.5601C122.015 94.8421 121.927 96.0387 122.104 97.3207V97.4062L122.015 97.4917C121.128 98.6882 120.241 99.2865 119.354 99.2865ZM117.757 93.0473C117.225 94.5002 117.402 96.8079 118.201 97.919C118.555 98.4318 118.91 98.6882 119.354 98.6882C119.975 98.6882 120.685 98.1754 121.394 97.3207C121.217 96.0387 121.306 94.7567 121.483 93.5601L121.572 92.1071L117.757 93.0473Z" fill="black"/>
<path fill-rule="evenodd" clip-rule="evenodd" d="M117.934 86.979C115.539 87.1499 113.588 89.9704 114.83 92.1071C116.515 95.0131 120.152 91.8507 122.459 92.1071C125.12 92.1926 127.249 94.8421 129.379 92.6199C131.774 90.1413 128.314 87.7482 125.741 86.6371L117.934 86.979Z" fill="#F6D2A2"/>
<path d="M127.516 93.8165C126.717 93.8165 125.919 93.4746 125.12 93.1327C124.322 92.7909 123.435 92.449 122.459 92.449H122.193C121.483 92.449 120.685 92.7054 119.797 93.0473C118.822 93.3891 117.846 93.6455 116.959 93.6455C115.894 93.6455 115.096 93.2182 114.563 92.278C113.942 91.2524 114.031 90.0558 114.652 88.9447C115.362 87.6627 116.604 86.8935 117.934 86.7226L125.83 86.3807H125.919C127.87 87.1499 130.088 88.6029 130.532 90.3123C130.709 91.1669 130.443 92.0216 129.733 92.7909C129.024 93.5601 128.314 93.8165 127.516 93.8165V93.8165ZM122.548 91.9362C123.523 91.9362 124.499 92.3635 125.386 92.7054C126.185 93.0473 126.895 93.3037 127.604 93.3037C128.225 93.3037 128.758 93.0473 129.29 92.5344C129.911 91.9362 130.088 91.2524 130 90.5687C129.645 89.1157 127.516 87.7482 125.83 87.0644L118.112 87.4063C116.959 87.4918 115.894 88.261 115.273 89.2866C114.741 90.2268 114.741 91.2524 115.184 92.1071C115.628 92.8763 116.16 93.2182 117.047 93.2182C117.846 93.2182 118.733 92.8763 119.62 92.6199C120.596 92.278 121.394 92.0216 122.281 92.0216C122.281 91.8507 122.37 91.8507 122.548 91.9362V91.9362Z" fill="#231F20"/>
<path fill-rule="evenodd" clip-rule="evenodd" d="M117.668 86.8935C117.491 82.8764 125.475 82.3636 126.362 85.6969C127.338 89.1157 118.023 89.8849 117.668 86.8935" fill="black"/>
</g>
</g>
<defs>
<filter id="filter0_d_3_84" x="0.220337" y="0" width="243.559" height="236" filterUnits="userSpaceOnUse" color-interpolation-filters="sRGB">
<feFlood flood-opacity="0" result="BackgroundImageFix"/>
<feColorMatrix in="SourceAlpha" type="matrix" values="0 0 0 0 0 0 0 0 0 0 0 0 0 0 0 0 0 0 127 0" result="hardAlpha"/>
<feOffset dy="4"/>
<feGaussianBlur stdDeviation="2"/>
<feColorMatrix type="matrix" values="0 0 0 0 0 0 0 0 0 0 0 0 0 0 0 0 0 0 0.25 0"/>
<feBlend mode="normal" in2="BackgroundImageFix" result="effect1_dropShadow_3_84"/>
<feBlend mode="normal" in="SourceGraphic" in2="effect1_dropShadow_3_84" result="shape"/>
</filter>
<clipPath id="clip0_3_84">
<rect width="244" height="236" fill="white"/>
</clipPath>
</defs>
</svg>
