<svg width="236" height="236" viewBox="0 0 236 236" fill="none" xmlns="http://www.w3.org/2000/svg">
<g clip-path="url(#clip0_4_206)">
<g filter="url(#filter0_d_4_206)">
<path d="M118 225.5C179.58 225.5 229.5 175.58 229.5 114C229.5 52.4202 179.58 2.5 118 2.5C56.4202 2.5 6.5 52.4202 6.5 114C6.5 175.58 56.4202 225.5 118 225.5Z" stroke="#20232A" stroke-width="5"/>
<path d="M118 204.5C167.982 204.5 208.5 163.982 208.5 114C208.5 64.0182 167.982 23.5 118 23.5C68.0182 23.5 27.5 64.0182 27.5 114C27.5 163.982 68.0182 204.5 118 204.5Z" fill="#20232A" stroke="#20232A"/>
<g clip-path="url(#clip1_4_206)">
<path d="M71.2945 168.697L62 55.2121L173 55.4402L163.172 168.697L117.919 181.788L71.2945 168.697Z" fill="#E34F26"/>
<path d="M117.919 170.828V66.0201L163.629 66.1721L155.478 159.943L117.919 170.828Z" fill="#EF652A"/>
<path d="M151.06 92.2032L152.354 78.3501H82.0364L85.9214 120.822H134.451L132.548 138.936L117.006 143.122L101.236 138.555L100.398 127.747H86.4549L88.3598 149.82L117.005 157.812L145.878 149.82L149.763 106.741H98.7974L97.3499 92.2032H151.06Z" fill="white"/>
</g>
</g>
</g>
<defs>
<filter id="filter0_d_4_206" x="0" y="0" width="236" height="236" filterUnits="userSpaceOnUse" color-interpolation-filters="sRGB">
<feFlood flood-opacity="0" result="BackgroundImageFix"/>
<feColorMatrix in="SourceAlpha" type="matrix" values="0 0 0 0 0 0 0 0 0 0 0 0 0 0 0 0 0 0 127 0" result="hardAlpha"/>
<feOffset dy="4"/>
<feGaussianBlur stdDeviation="2"/>
<feColorMatrix type="matrix" values="0 0 0 0 0 0 0 0 0 0 0 0 0 0 0 0 0 0 0.25 0"/>
<feBlend mode="normal" in2="BackgroundImageFix" result="effect1_dropShadow_4_206"/>
<feBlend mode="normal" in="SourceGraphic" in2="effect1_dropShadow_4_206" result="shape"/>
</filter>
<clipPath id="clip0_4_206">
<rect width="236" height="236" fill="white"/>
</clipPath>
<clipPath id="clip1_4_206">
<rect width="111" height="127" fill="white" transform="translate(62 55)"/>
</clipPath>
</defs>
</svg>
