<svg width="236" height="236" viewBox="0 0 236 236" fill="none" xmlns="http://www.w3.org/2000/svg">
<g clip-path="url(#clip0_3_75)">
<g filter="url(#filter0_d_3_75)">
<path d="M118 225.5C179.58 225.5 229.5 175.58 229.5 114C229.5 52.4202 179.58 2.5 118 2.5C56.4202 2.5 6.5 52.4202 6.5 114C6.5 175.58 56.4202 225.5 118 225.5Z" stroke="#20232A" stroke-width="5"/>
<path d="M118 204.5C167.982 204.5 208.5 163.982 208.5 114C208.5 64.0182 167.982 23.5 118 23.5C68.0182 23.5 27.5 64.0182 27.5 114C27.5 163.982 68.0182 204.5 118 204.5Z" fill="#20232A" stroke="#20232A"/>
<g clip-path="url(#clip1_3_75)">
<path d="M100.953 149.496C100.953 149.496 96.0045 152.379 104.475 153.355C114.737 154.528 119.981 154.36 131.289 152.215C131.289 152.215 134.263 154.083 138.414 155.701C113.064 166.589 81.0413 155.071 100.953 149.496M97.8552 135.288C97.8552 135.288 92.3049 139.405 100.782 140.284C111.743 141.417 120.4 141.51 135.38 138.619C135.38 138.619 137.452 140.724 140.709 141.875C110.059 150.856 75.9204 142.583 97.8552 135.288" fill="#5382A1"/>
<path d="M123.97 111.188C130.216 118.394 122.329 124.879 122.329 124.879C122.329 124.879 138.189 116.674 130.905 106.4C124.102 96.819 118.885 92.0578 147.128 75.644C147.128 75.644 102.796 86.7391 123.97 111.187" fill="#E76F00"/>
<path d="M157.498 160.004C157.498 160.004 161.16 163.028 153.465 165.367C138.832 169.809 92.5621 171.15 79.7084 165.544C75.088 163.53 83.7529 160.735 86.4783 160.148C89.3208 159.53 90.9454 159.645 90.9454 159.645C85.8068 156.018 57.7319 166.768 76.6849 169.846C128.372 178.246 170.905 166.064 157.498 160.004ZM103.332 120.568C103.332 120.568 79.7969 126.17 94.9981 128.203C101.416 129.065 114.211 128.87 126.129 127.869C135.87 127.046 145.65 125.295 145.65 125.295C145.65 125.295 142.216 126.769 139.731 128.469C115.831 134.768 69.6596 131.838 82.9516 125.395C94.1927 119.95 103.333 120.568 103.333 120.568M145.553 144.216C169.849 131.565 158.616 119.407 150.775 121.046C148.853 121.446 147.996 121.793 147.996 121.793C147.996 121.793 148.71 120.674 150.072 120.189C165.583 114.724 177.513 136.306 145.065 144.854C145.065 144.854 145.441 144.518 145.553 144.216" fill="#5382A1"/>
<path d="M130.905 49.1394C130.905 49.1394 144.361 62.6278 118.143 83.3681C97.1199 100.006 113.349 109.492 118.135 120.331C105.863 109.235 96.8567 99.4682 102.899 90.3779C111.767 77.0334 136.334 70.5638 130.905 49.139" fill="#E76F00"/>
<path d="M105.72 178.498C129.041 179.995 164.853 177.668 165.701 166.611C165.701 166.611 164.071 170.803 146.427 174.132C126.522 177.885 101.973 177.447 87.4119 175.041C87.4123 175.041 90.3927 177.514 105.72 178.498" fill="#5382A1"/>
</g>
</g>
</g>
<defs>
<filter id="filter0_d_3_75" x="0" y="0" width="236" height="236" filterUnits="userSpaceOnUse" color-interpolation-filters="sRGB">
<feFlood flood-opacity="0" result="BackgroundImageFix"/>
<feColorMatrix in="SourceAlpha" type="matrix" values="0 0 0 0 0 0 0 0 0 0 0 0 0 0 0 0 0 0 127 0" result="hardAlpha"/>
<feOffset dy="4"/>
<feGaussianBlur stdDeviation="2"/>
<feColorMatrix type="matrix" values="0 0 0 0 0 0 0 0 0 0 0 0 0 0 0 0 0 0 0.25 0"/>
<feBlend mode="normal" in2="BackgroundImageFix" result="effect1_dropShadow_3_75"/>
<feBlend mode="normal" in="SourceGraphic" in2="effect1_dropShadow_3_75" result="shape"/>
</filter>
<clipPath id="clip0_3_75">
<rect width="236" height="236" fill="white"/>
</clipPath>
<clipPath id="clip1_3_75">
<rect width="96" height="130" fill="white" transform="translate(70 49)"/>
</clipPath>
</defs>
</svg>
