<svg width="236" height="236" viewBox="0 0 236 236" fill="none" xmlns="http://www.w3.org/2000/svg">
<g clip-path="url(#clip0_4_214)">
<g filter="url(#filter0_d_4_214)">
<path d="M118 225.5C179.58 225.5 229.5 175.58 229.5 114C229.5 52.4202 179.58 2.5 118 2.5C56.4202 2.5 6.5 52.4202 6.5 114C6.5 175.58 56.4202 225.5 118 225.5Z" stroke="#20232A" stroke-width="5"/>
<path d="M118 204.5C167.982 204.5 208.5 163.982 208.5 114C208.5 64.0182 167.982 23.5 118 23.5C68.0182 23.5 27.5 64.0182 27.5 114C27.5 163.982 68.0182 204.5 118 204.5Z" fill="#20232A" stroke="#20232A"/>
<g clip-path="url(#clip1_4_214)">
<path d="M71.2945 164.697L62 51.2121L173 51.4402L163.172 164.697L117.919 177.788L71.2945 164.697Z" fill="#E9CA32"/>
<path d="M117.919 166.828V62.0201L163.629 62.1721L155.478 155.943L117.919 166.828Z" fill="#FFDE25"/>
<path d="M113.024 74.4646H100.94V144.222L91.5403 142.433V133.043L80.3508 131.254V152.271L113.024 160.767V74.4646ZM122.09 74.4646H155.544L153.306 87.8348H134.861V109.775H153.306L151.069 154.06L122.09 160.767V146.905L141.669 140.198L142.8 121.864L122.09 124.86V74.4646Z" fill="white"/>
</g>
</g>
</g>
<defs>
<filter id="filter0_d_4_214" x="0" y="0" width="236" height="236" filterUnits="userSpaceOnUse" color-interpolation-filters="sRGB">
<feFlood flood-opacity="0" result="BackgroundImageFix"/>
<feColorMatrix in="SourceAlpha" type="matrix" values="0 0 0 0 0 0 0 0 0 0 0 0 0 0 0 0 0 0 127 0" result="hardAlpha"/>
<feOffset dy="4"/>
<feGaussianBlur stdDeviation="2"/>
<feColorMatrix type="matrix" values="0 0 0 0 0 0 0 0 0 0 0 0 0 0 0 0 0 0 0.25 0"/>
<feBlend mode="normal" in2="BackgroundImageFix" result="effect1_dropShadow_4_214"/>
<feBlend mode="normal" in="SourceGraphic" in2="effect1_dropShadow_4_214" result="shape"/>
</filter>
<clipPath id="clip0_4_214">
<rect width="236" height="236" fill="white"/>
</clipPath>
<clipPath id="clip1_4_214">
<rect width="111" height="127" fill="white" transform="translate(62 51)"/>
</clipPath>
</defs>
</svg>
