<svg width="236" height="236" viewBox="0 0 236 236" fill="none" xmlns="http://www.w3.org/2000/svg">
<g clip-path="url(#clip0_6_611)">
<g filter="url(#filter0_d_6_611)">
<path d="M118 225.5C179.58 225.5 229.5 175.58 229.5 114C229.5 52.4202 179.58 2.5 118 2.5C56.4202 2.5 6.5 52.4202 6.5 114C6.5 175.58 56.4202 225.5 118 225.5Z" stroke="#20232A" stroke-width="5"/>
<path d="M118 204.5C167.982 204.5 208.5 163.982 208.5 114C208.5 64.0182 167.982 23.5 118 23.5C68.0182 23.5 27.5 64.0182 27.5 114C27.5 163.982 68.0182 204.5 118 204.5Z" fill="#20232A" stroke="#20232A"/>
<g clip-path="url(#clip1_6_611)">
<path d="M179.71 82.466C179.756 82.6197 179.779 82.7781 179.779 82.9374V107.685C179.779 108.003 179.687 108.315 179.511 108.589C179.335 108.864 179.082 109.092 178.777 109.25L155.821 121.209V144.912C155.821 145.557 155.442 146.153 154.824 146.478L106.904 171.437C106.794 171.494 106.674 171.53 106.555 171.568C106.51 171.582 106.468 171.606 106.42 171.618C106.085 171.698 105.733 171.698 105.398 171.618C105.343 171.604 105.293 171.577 105.241 171.559C105.131 171.523 105.017 171.491 104.912 171.437L57.0021 146.478C56.6978 146.319 56.4449 146.091 56.2689 145.817C56.093 145.542 56.0002 145.23 56 144.912V70.6696C56 70.5072 56.0249 70.3493 56.0698 70.1959C56.0848 70.144 56.1197 70.0967 56.1396 70.0448C56.177 69.9501 56.2119 69.8531 56.2667 69.7651C56.3041 69.7065 56.359 69.6591 56.4038 69.605C56.4612 69.5328 56.5135 69.4584 56.5808 69.3952C56.6382 69.3433 56.713 69.305 56.7778 69.2599C56.8501 69.2057 56.9149 69.1471 56.9971 69.1042H56.9996L80.9558 56.6244C81.2592 56.4665 81.603 56.3834 81.953 56.3834C82.3029 56.3834 82.6468 56.4665 82.9501 56.6244L106.906 69.1042H106.911C106.991 69.1494 107.058 69.2057 107.131 69.2576C107.195 69.3027 107.268 69.3433 107.325 69.393C107.395 69.4584 107.445 69.5328 107.505 69.605C107.547 69.6591 107.604 69.7065 107.639 69.7651C107.697 69.8553 107.729 69.9501 107.769 70.0448C107.789 70.0967 107.824 70.144 107.839 70.1982C107.885 70.3519 107.908 70.5104 107.908 70.6696V117.041L127.871 106.641V82.9351C127.871 82.7772 127.896 82.6171 127.941 82.466C127.958 82.4118 127.991 82.3645 128.011 82.3126C128.051 82.2179 128.085 82.1209 128.14 82.0329C128.178 81.9743 128.233 81.9269 128.275 81.8728C128.335 81.8006 128.385 81.7261 128.454 81.663C128.512 81.6111 128.584 81.5728 128.649 81.5277C128.724 81.4735 128.788 81.4149 128.868 81.372H128.871L152.829 68.8922C153.133 68.7341 153.477 68.6508 153.827 68.6508C154.177 68.6508 154.52 68.7341 154.824 68.8922L178.78 81.372C178.865 81.4171 178.929 81.4735 179.004 81.5254C179.067 81.5705 179.139 81.6111 179.196 81.6607C179.266 81.7261 179.316 81.8006 179.376 81.8728C179.421 81.9269 179.475 81.9743 179.51 82.0329C179.568 82.1209 179.6 82.2179 179.64 82.3126C179.662 82.3645 179.695 82.4118 179.71 82.466V82.466ZM175.786 106.641V86.0613L167.403 90.428L155.821 96.4615V117.041L175.788 106.641H175.786ZM151.83 143.868V123.275L140.437 129.162L107.906 145.961V166.748L151.83 143.868ZM59.9935 73.7935V143.868L103.912 166.746V145.963L80.9683 134.214L80.9608 134.21L80.9508 134.205C80.8736 134.165 80.8087 134.106 80.7365 134.057C80.6741 134.011 80.6018 133.975 80.547 133.926L80.542 133.919C80.4772 133.863 80.4323 133.793 80.3775 133.729C80.3276 133.669 80.2678 133.617 80.2279 133.554L80.2254 133.547C80.1805 133.479 80.1531 133.398 80.1207 133.321C80.0883 133.254 80.0459 133.19 80.026 133.118V133.116C80.0011 133.03 79.9961 132.94 79.9861 132.852C79.9761 132.784 79.9562 132.717 79.9562 132.649V84.1937L68.377 78.1579L59.9935 73.7957V73.7935ZM81.9554 60.2739L61.9953 70.6696L81.9505 81.0653L101.908 70.6673L81.9505 60.2739H81.9554ZM92.3356 125.152L103.915 119.12V73.7935L95.5315 78.1602L83.9497 84.1937V129.521L92.3356 125.152ZM153.827 72.5417L133.869 82.9374L153.827 93.3331L173.782 82.9351L153.827 72.5417ZM151.83 96.4615L140.248 90.428L131.865 86.0613V106.641L143.444 112.672L151.83 117.041V96.4615ZM105.907 142.837L135.18 127.716L149.813 120.16L129.87 109.771L106.909 121.732L85.9814 132.633L105.907 142.837Z" fill="#FF2D20"/>
</g>
</g>
</g>
<defs>
<filter id="filter0_d_6_611" x="0" y="0" width="236" height="236" filterUnits="userSpaceOnUse" color-interpolation-filters="sRGB">
<feFlood flood-opacity="0" result="BackgroundImageFix"/>
<feColorMatrix in="SourceAlpha" type="matrix" values="0 0 0 0 0 0 0 0 0 0 0 0 0 0 0 0 0 0 127 0" result="hardAlpha"/>
<feOffset dy="4"/>
<feGaussianBlur stdDeviation="2"/>
<feColorMatrix type="matrix" values="0 0 0 0 0 0 0 0 0 0 0 0 0 0 0 0 0 0 0.25 0"/>
<feBlend mode="normal" in2="BackgroundImageFix" result="effect1_dropShadow_6_611"/>
<feBlend mode="normal" in="SourceGraphic" in2="effect1_dropShadow_6_611" result="shape"/>
</filter>
<clipPath id="clip0_6_611">
<rect width="236" height="236" fill="white"/>
</clipPath>
<clipPath id="clip1_6_611">
<rect width="124" height="116" fill="white" transform="translate(56 56)"/>
</clipPath>
</defs>
</svg>
