<svg width="244" height="236" viewBox="0 0 244 236" fill="none" xmlns="http://www.w3.org/2000/svg">
<g clip-path="url(#clip0_4_386)">
<g filter="url(#filter0_d_4_386)">
<path d="M122 225.5C185.667 225.5 237.28 175.58 237.28 114C237.28 52.4202 185.667 2.5 122 2.5C58.3328 2.5 6.72034 52.4202 6.72034 114C6.72034 175.58 58.3328 225.5 122 225.5Z" stroke="#20232A" stroke-width="5"/>
<path d="M122 204.5C173.676 204.5 215.568 163.982 215.568 114C215.568 64.0182 173.676 23.5 122 23.5C70.3239 23.5 28.4322 64.0182 28.4322 114C28.4322 163.982 70.3239 204.5 122 204.5Z" fill="#20232A" stroke="#20232A"/>
<g clip-path="url(#clip1_4_386)">
<path d="M85.6467 136.4H81.5742V121.275C81.5742 115.706 79.6204 112.922 75.7109 112.922C74.8052 112.922 73.9732 113.113 73.2133 113.496C72.4533 113.879 71.7929 114.397 71.2319 115.053C70.671 115.708 70.237 116.453 69.9282 117.29C69.6194 118.127 69.4668 119.001 69.4668 119.911V136.4H65.3961V120.294C65.3961 118.11 64.9243 116.334 63.9843 114.97C63.0425 113.605 61.6496 112.922 59.8038 112.922C58.8637 112.922 57.994 113.131 57.198 113.55C56.4021 113.969 55.7142 114.533 55.1344 115.242C54.5546 115.951 54.1034 116.754 53.7775 117.645C53.4515 118.537 53.2886 119.438 53.2886 120.349V136.4H49.2179V116.909C49.2179 115.853 49.199 114.752 49.163 113.605C49.1269 112.458 49.072 111.266 49 110.029H52.6384V114.342H53.0175C54.8633 111.102 57.5771 109.482 61.1607 109.482C62.8984 109.482 64.4097 109.956 65.6945 110.902C66.9794 111.849 67.892 113.141 68.4358 114.778H68.5439C69.4839 113.031 70.6881 111.713 72.1531 110.821C73.6198 109.929 75.2924 109.482 77.1759 109.482C79.7456 109.482 81.799 110.474 83.3377 112.458C84.8764 114.442 85.645 117.2 85.645 120.73V136.4H85.6467ZM106.824 136.4L106.445 133.015H106.282C104.508 135.672 101.866 137 98.3546 137C97.2327 137 96.2 136.817 95.2599 136.455C94.3182 136.091 93.5033 135.573 92.8172 134.899C92.131 134.224 91.5872 133.434 91.1892 132.523C90.7912 131.614 90.5922 130.612 90.5922 129.52C90.5922 126.316 91.9131 123.887 94.5549 122.231C97.1966 120.575 101.034 119.747 106.064 119.747V119.146C106.064 114.816 104.055 112.649 100.037 112.649C97.5397 112.649 95.332 113.286 93.4141 114.561L92.4363 111.721C94.7522 110.229 97.4848 109.482 100.634 109.482C107.004 109.482 110.189 112.994 110.189 120.019V130.122C110.189 131.395 110.217 132.553 110.272 133.589C110.327 134.628 110.426 135.565 110.57 136.401H106.824V136.4ZM106.119 122.75H105.304C98.2825 122.75 94.771 124.826 94.771 128.975C94.771 130.613 95.205 131.831 96.0747 132.634C96.9428 133.434 98.0286 133.834 99.3323 133.834C100.164 133.834 100.988 133.689 101.803 133.398C102.617 133.106 103.341 132.697 103.974 132.17C104.607 131.642 105.124 130.996 105.522 130.232C105.92 129.468 106.119 128.612 106.119 127.667V122.75V122.75ZM134.406 114.178C132.812 113.303 130.967 112.867 128.869 112.867C127.385 112.867 126.062 113.131 124.904 113.659C123.746 114.187 122.769 114.915 121.973 115.843C121.177 116.771 120.561 117.871 120.127 119.146C119.693 120.42 119.475 121.803 119.475 123.295C119.475 124.824 119.701 126.226 120.154 127.5C120.607 128.773 121.24 129.856 122.055 130.748C122.868 131.64 123.837 132.332 124.959 132.823C126.081 133.315 127.33 133.56 128.706 133.56C130.659 133.56 132.596 133.124 134.516 132.249L135.329 135.415C133.301 136.434 130.841 136.943 127.946 136.943C126.026 136.943 124.29 136.624 122.732 135.987C121.177 135.351 119.837 134.44 118.715 133.258C117.593 132.075 116.734 130.665 116.137 129.026C115.54 127.387 115.241 125.55 115.241 123.511C115.241 121.436 115.576 119.543 116.245 117.832C116.914 116.122 117.847 114.647 119.041 113.41C120.235 112.173 121.674 111.207 123.357 110.517C125.04 109.825 126.894 109.479 128.922 109.479C131.564 109.479 133.735 109.953 135.437 110.898L134.406 114.178V114.178ZM170.349 117.618C170.349 120.494 169.96 123.114 169.181 125.479C168.402 127.846 167.299 129.884 165.869 131.595C164.44 133.306 162.719 134.635 160.71 135.58C158.702 136.526 156.466 137 154.006 137C151.653 137 149.5 136.536 147.546 135.608C145.591 134.68 143.908 133.388 142.496 131.731C141.084 130.075 139.99 128.109 139.211 125.835C138.432 123.561 138.044 121.058 138.044 118.327C138.044 115.489 138.451 112.877 139.266 110.493C140.081 108.109 141.211 106.071 142.659 104.377C144.107 102.685 145.834 101.365 147.843 100.42C149.853 99.4744 152.053 99 154.442 99C156.83 99 159.01 99.4554 160.983 100.365C162.956 101.275 164.63 102.549 166.006 104.188C167.382 105.826 168.449 107.791 169.209 110.084C169.968 112.377 170.349 114.889 170.349 117.618ZM165.951 117.837C165.951 115.653 165.661 113.624 165.081 111.749C164.501 109.875 163.697 108.236 162.666 106.836C161.633 105.435 160.403 104.343 158.974 103.56C157.545 102.778 155.96 102.386 154.224 102.386C152.451 102.386 150.831 102.778 149.364 103.56C147.898 104.343 146.651 105.433 145.618 106.836C144.585 108.236 143.781 109.912 143.201 111.859C142.621 113.807 142.333 115.927 142.333 118.22C142.333 120.368 142.623 122.379 143.201 124.253C143.781 126.128 144.585 127.757 145.618 129.14C146.649 130.524 147.889 131.616 149.337 132.416C150.785 133.217 152.377 133.617 154.115 133.617C155.888 133.617 157.508 133.217 158.974 132.416C160.441 131.616 161.688 130.505 162.721 129.085C163.753 127.665 164.548 126 165.11 124.089C165.67 122.177 165.951 120.093 165.951 117.837V117.837ZM195 126.518C195 128.083 194.71 129.513 194.13 130.805C193.55 132.097 192.727 133.199 191.66 134.109C190.593 135.02 189.3 135.72 187.778 136.212C186.258 136.703 184.556 136.948 182.675 136.948C178.909 136.948 175.924 136.167 173.717 134.6L174.856 131.16C177.28 132.689 179.976 133.453 182.946 133.453C185.443 133.453 187.38 132.853 188.756 131.652C190.132 130.451 190.819 128.85 190.819 126.847C190.819 124.991 190.284 123.49 189.217 122.343C188.149 121.198 186.385 120.15 183.923 119.203C177.662 116.838 174.532 113.379 174.532 108.83C174.532 107.412 174.811 106.101 175.372 104.9C175.933 103.699 176.72 102.661 177.734 101.788C178.748 100.915 179.951 100.242 181.343 99.7677C182.736 99.295 184.248 99.0587 185.877 99.0587C189.025 99.0587 191.595 99.6418 193.586 100.806L192.338 104.191C190.564 103.063 188.356 102.499 185.714 102.499C183.615 102.499 181.913 103.027 180.611 104.082C179.307 105.138 178.657 106.539 178.657 108.287C178.657 109.123 178.774 109.87 179.009 110.526C179.244 111.181 179.633 111.799 180.177 112.382C180.719 112.965 181.453 113.521 182.376 114.047C183.299 114.575 184.467 115.13 185.877 115.712C187.505 116.367 188.9 117.068 190.058 117.815C191.216 118.562 192.166 119.371 192.909 120.244C193.652 121.118 194.185 122.074 194.511 123.111C194.837 124.142 195 125.279 195 126.518Z" fill="white"/>
</g>
</g>
</g>
<defs>
<filter id="filter0_d_4_386" x="0.220337" y="0" width="243.559" height="236" filterUnits="userSpaceOnUse" color-interpolation-filters="sRGB">
<feFlood flood-opacity="0" result="BackgroundImageFix"/>
<feColorMatrix in="SourceAlpha" type="matrix" values="0 0 0 0 0 0 0 0 0 0 0 0 0 0 0 0 0 0 127 0" result="hardAlpha"/>
<feOffset dy="4"/>
<feGaussianBlur stdDeviation="2"/>
<feColorMatrix type="matrix" values="0 0 0 0 0 0 0 0 0 0 0 0 0 0 0 0 0 0 0.25 0"/>
<feBlend mode="normal" in2="BackgroundImageFix" result="effect1_dropShadow_4_386"/>
<feBlend mode="normal" in="SourceGraphic" in2="effect1_dropShadow_4_386" result="shape"/>
</filter>
<clipPath id="clip0_4_386">
<rect width="244" height="236" fill="white"/>
</clipPath>
<clipPath id="clip1_4_386">
<rect width="146" height="38" fill="white" transform="translate(49 99)"/>
</clipPath>
</defs>
</svg>
