<svg width="236" height="236" viewBox="0 0 236 236" fill="none" xmlns="http://www.w3.org/2000/svg">
<g clip-path="url(#clip0_6_621)">
<g filter="url(#filter0_d_6_621)">
<path d="M118 225.5C179.58 225.5 229.5 175.58 229.5 114C229.5 52.4202 179.58 2.5 118 2.5C56.4202 2.5 6.5 52.4202 6.5 114C6.5 175.58 56.4202 225.5 118 225.5Z" stroke="#20232A" stroke-width="5"/>
<path d="M118 204.5C167.982 204.5 208.5 163.982 208.5 114C208.5 64.0182 167.982 23.5 118 23.5C68.0182 23.5 27.5 64.0182 27.5 114C27.5 163.982 68.0182 204.5 118 204.5Z" fill="#20232A" stroke="#20232A"/>
<path d="M117.378 42.2719L121.257 49.558C122.129 50.9025 123.074 52.0927 124.187 53.201C127.449 56.4231 130.491 59.862 133.29 63.4942C139.863 72.1248 144.296 81.7093 147.462 92.0751C149.361 98.4073 150.392 104.903 150.469 111.471C150.787 131.108 144.055 147.97 130.483 161.983C128.275 164.205 125.89 166.244 123.351 168.079C122.006 168.079 121.37 167.048 120.816 166.099C119.807 164.338 119.135 162.405 118.836 160.398C118.359 158.022 118.045 155.647 118.2 153.194V152.085C118.091 151.849 116.905 42.8306 117.378 42.2719V42.2719Z" fill="#599636"/>
<path d="M117.378 42.0312C117.219 41.7132 117.06 41.9539 116.901 42.1084C116.978 43.6982 116.424 45.1155 115.556 46.4691C114.602 47.8137 113.339 48.8448 112.072 49.9532C105.031 56.0491 99.4895 63.4124 95.0516 71.6478C89.1464 82.7313 86.103 94.6098 85.2399 107.115C84.8447 111.626 86.6662 127.542 88.088 132.135C91.9673 144.327 98.9354 154.543 107.961 163.409C110.178 165.544 112.549 167.525 115.002 169.428C115.715 169.428 115.792 168.792 115.956 168.32C116.269 167.309 116.507 166.277 116.669 165.231L118.259 153.357L117.378 42.0312Z" fill="#6CAC48"/>
<path d="M121.257 172.903C121.416 171.086 122.288 169.578 123.237 168.075C122.283 167.679 121.575 166.894 121.021 166.017C120.543 165.187 120.147 164.312 119.84 163.405C118.731 160.08 118.495 156.591 118.177 153.194V151.136C117.782 151.454 117.7 154.143 117.7 154.543C117.469 158.134 116.992 161.705 116.274 165.231C116.038 166.657 115.879 168.079 115.002 169.346C115.002 169.505 115.002 169.664 115.079 169.901C116.505 174.098 116.896 178.372 117.137 182.728V184.318C117.137 186.217 117.06 185.817 118.636 186.453C119.272 186.689 119.98 186.771 120.616 187.244C121.093 187.244 121.171 186.848 121.171 186.531L120.934 183.919V176.633C120.857 175.361 121.093 174.098 121.252 172.908L121.257 172.903Z" fill="#C2BFBF"/>
</g>
</g>
<defs>
<filter id="filter0_d_6_621" x="0" y="0" width="236" height="236" filterUnits="userSpaceOnUse" color-interpolation-filters="sRGB">
<feFlood flood-opacity="0" result="BackgroundImageFix"/>
<feColorMatrix in="SourceAlpha" type="matrix" values="0 0 0 0 0 0 0 0 0 0 0 0 0 0 0 0 0 0 127 0" result="hardAlpha"/>
<feOffset dy="4"/>
<feGaussianBlur stdDeviation="2"/>
<feColorMatrix type="matrix" values="0 0 0 0 0 0 0 0 0 0 0 0 0 0 0 0 0 0 0.25 0"/>
<feBlend mode="normal" in2="BackgroundImageFix" result="effect1_dropShadow_6_621"/>
<feBlend mode="normal" in="SourceGraphic" in2="effect1_dropShadow_6_621" result="shape"/>
</filter>
<clipPath id="clip0_6_621">
<rect width="236" height="236" fill="white"/>
</clipPath>
</defs>
</svg>
