<svg width="244" height="236" viewBox="0 0 244 236" fill="none" xmlns="http://www.w3.org/2000/svg">
<g clip-path="url(#clip0_6_625)">
<g filter="url(#filter0_d_6_625)">
<path d="M122 225.5C185.667 225.5 237.28 175.58 237.28 114C237.28 52.4202 185.667 2.5 122 2.5C58.3328 2.5 6.72034 52.4202 6.72034 114C6.72034 175.58 58.3328 225.5 122 225.5Z" stroke="#20232A" stroke-width="5"/>
<path d="M122 204.5C173.676 204.5 215.568 163.982 215.568 114C215.568 64.0182 173.676 23.5 122 23.5C70.3239 23.5 28.4322 64.0182 28.4322 114C28.4322 163.982 70.3239 204.5 122 204.5Z" fill="#20232A" stroke="#20232A"/>
<g clip-path="url(#clip1_6_625)">
<path d="M183.206 72.002C181.247 72.0647 181.866 72.627 177.633 73.6647C173.357 74.7127 168.135 74.391 163.531 76.3146C149.788 82.0563 147.03 101.679 134.536 108.709C125.197 113.963 115.775 114.382 107.304 117.026C101.736 118.765 95.6465 122.331 90.6027 126.661C86.6879 130.023 86.5857 132.979 82.4948 137.196C78.1196 141.706 65.1049 137.272 59.2064 144.175C61.1062 146.088 61.9396 146.625 65.6837 146.128C64.9089 147.592 60.3388 148.825 61.2332 150.978C62.1747 153.244 73.2227 154.78 83.2661 148.74C87.9434 145.927 91.6692 141.872 98.9531 140.905C108.38 139.653 119.239 141.707 130.152 143.275C128.533 148.081 125.285 151.277 122.683 155.104C121.876 155.969 124.301 156.066 127.067 155.543C132.042 154.318 135.628 153.331 139.383 151.154C143.996 148.479 144.696 141.621 150.356 140.136C153.509 144.965 162.087 146.105 167.409 142.243C162.738 140.926 161.448 131.024 163.024 126.661C164.517 122.53 165.993 115.924 167.497 110.464C169.112 104.601 169.707 97.2104 171.661 94.2234C174.601 89.7299 177.849 88.1868 180.669 85.653C183.489 83.1186 186.071 80.6525 185.986 74.854C185.959 72.9863 184.989 71.9457 183.206 72.002V72.002Z" fill="#002B64"/>
<path d="M63.263 150.565C70.415 151.586 74.7644 150.565 80.5076 148.084C85.3947 145.973 90.1141 141.621 95.8851 139.776C104.36 137.067 113.654 139.779 122.714 140.32C124.92 140.452 127.112 140.454 129.276 140.219C132.651 138.152 132.581 130.424 135.866 129.716C135.769 140.559 131.306 147.056 126.639 153.348C136.476 151.617 142.362 145.95 146.338 138.38C147.544 136.085 148.574 133.616 149.485 131.028C150.893 132.104 150.095 135.38 150.803 137.155C157.578 133.395 161.458 124.815 164.028 116.138C167 106.095 168.217 95.9252 170.134 92.9535C172.005 90.0531 174.917 88.2654 177.575 86.4085C180.596 84.2971 183.289 82.0968 183.754 78.0742C180.569 77.7807 179.833 77.0464 179.361 75.4474C177.767 76.3428 176.3 76.5345 174.643 76.5839C173.206 76.6274 171.626 76.5637 169.697 76.7608C153.744 78.3929 151.717 95.9079 141.492 105.837C140.738 106.564 139.937 107.242 139.094 107.865C135.512 110.523 131.119 112.422 127.079 113.96C120.54 116.449 114.323 116.626 108.188 118.775C103.684 120.351 99.1074 122.639 95.4084 125.161C94.5151 125.766 93.6482 126.41 92.8101 127.089C90.6394 128.858 89.2142 130.821 87.8362 132.841C86.4145 134.921 85.042 137.062 82.9497 139.107C79.5597 142.423 66.8926 140.074 62.4332 143.149C61.9361 143.491 61.5413 143.902 61.2724 144.395C63.706 145.496 65.3311 144.82 68.1303 145.128C68.4973 147.774 62.3553 149.347 63.263 150.565V150.565ZM159.913 131.505C160.104 134.54 161.873 140.562 163.434 142.026C160.376 142.767 155.107 141.543 153.755 139.394C154.45 136.291 158.064 133.454 159.913 131.505Z" fill="white"/>
<path d="M164.394 83.3326C166.652 85.2853 171.391 83.718 170.544 79.8322C167.035 79.5427 165.002 80.7291 164.394 83.3326ZM180.138 78.7911C179.538 80.0462 178.388 81.6644 178.388 84.8589C178.383 85.4074 177.969 85.7834 177.962 84.9379C177.994 81.8151 178.823 80.4657 179.705 78.6918C180.114 77.965 180.361 78.2649 180.138 78.7911V78.7911Z" fill="#002B64"/>
<path d="M179.533 78.3188C178.825 79.516 177.119 81.7005 176.836 84.8831C176.784 85.4286 176.339 85.7666 176.406 84.9231C176.714 81.8161 178.078 79.8713 179.112 78.1809C179.582 77.4936 179.803 77.8138 179.533 78.3188ZM178.982 77.6922C178.175 78.8257 175.548 81.449 174.999 84.5975C174.9 85.1361 174.428 85.4365 174.567 84.6015C175.136 81.5305 177.399 79.1168 178.573 77.5203C179.099 76.873 179.291 77.2114 178.982 77.6922V77.6922ZM178.49 76.9935C177.531 78.0025 174.4 81.3477 173.413 84.3875C173.238 84.9068 172.728 85.1386 172.984 84.3312C173.98 81.3704 176.722 78.1809 178.109 76.7653C178.722 76.1985 178.864 76.5602 178.49 76.9935Z" fill="#002B64"/>
</g>
</g>
</g>
<defs>
<filter id="filter0_d_6_625" x="0.220337" y="0" width="243.559" height="236" filterUnits="userSpaceOnUse" color-interpolation-filters="sRGB">
<feFlood flood-opacity="0" result="BackgroundImageFix"/>
<feColorMatrix in="SourceAlpha" type="matrix" values="0 0 0 0 0 0 0 0 0 0 0 0 0 0 0 0 0 0 127 0" result="hardAlpha"/>
<feOffset dy="4"/>
<feGaussianBlur stdDeviation="2"/>
<feColorMatrix type="matrix" values="0 0 0 0 0 0 0 0 0 0 0 0 0 0 0 0 0 0 0.25 0"/>
<feBlend mode="normal" in2="BackgroundImageFix" result="effect1_dropShadow_6_625"/>
<feBlend mode="normal" in="SourceGraphic" in2="effect1_dropShadow_6_625" result="shape"/>
</filter>
<clipPath id="clip0_6_625">
<rect width="244" height="236" fill="white"/>
</clipPath>
<clipPath id="clip1_6_625">
<rect width="127" height="84" fill="white" transform="translate(59 72)"/>
</clipPath>
</defs>
</svg>
