<svg width="236" height="236" viewBox="0 0 236 236" fill="none" xmlns="http://www.w3.org/2000/svg">
<g clip-path="url(#clip0_6_629)">
<g filter="url(#filter0_d_6_629)">
<path d="M118 225.5C179.58 225.5 229.5 175.58 229.5 114C229.5 52.4202 179.58 2.5 118 2.5C56.4202 2.5 6.5 52.4202 6.5 114C6.5 175.58 56.4202 225.5 118 225.5Z" stroke="#20232A" stroke-width="5"/>
<path d="M118 204.5C167.982 204.5 208.5 163.982 208.5 114C208.5 64.0182 167.982 23.5 118 23.5C68.0182 23.5 27.5 64.0182 27.5 114C27.5 163.982 68.0182 204.5 118 204.5Z" fill="#20232A" stroke="#20232A"/>
<g clip-path="url(#clip1_6_629)">
<path d="M168.54 149.168C162.07 149.006 157.056 149.653 152.85 151.43C151.637 151.914 149.696 151.914 149.534 153.449C150.181 154.095 150.262 155.146 150.828 156.034C151.8 157.649 153.497 159.83 155.034 160.962C156.732 162.254 158.431 163.546 160.209 164.677C163.364 166.615 166.923 167.746 169.996 169.685C171.775 170.815 173.554 172.27 175.333 173.481C176.223 174.126 176.788 175.178 177.921 175.581V175.339C177.355 174.612 177.193 173.562 176.627 172.754C175.819 171.946 175.009 171.219 174.201 170.411C171.855 167.262 168.944 164.515 165.79 162.254C163.202 160.476 157.541 158.053 156.49 155.064C156.49 155.064 156.408 154.984 156.328 154.903C158.107 154.742 160.209 154.095 161.908 153.611C164.658 152.883 167.165 153.045 169.996 152.318C171.289 151.995 172.583 151.591 173.877 151.187V150.461C172.422 149.006 171.371 147.068 169.834 145.695C165.709 142.14 161.18 138.667 156.49 135.759C153.982 134.144 150.747 133.093 148.078 131.721C147.109 131.235 145.49 130.994 144.925 130.186C143.468 128.409 142.66 126.067 141.609 123.966C139.264 119.523 136.999 114.596 134.977 109.912C133.522 106.761 132.632 103.611 130.852 100.703C122.522 86.9716 113.465 78.6518 99.5546 70.4931C96.5619 68.7971 93.0035 68.0701 89.2025 67.1819C87.1814 67.1007 85.1588 66.9396 83.1372 66.8583C81.8431 66.2928 80.549 64.7584 79.4166 64.0314C74.8077 61.1231 62.9184 54.8234 59.5218 63.1432C57.3379 68.3932 62.7571 73.5624 64.6165 76.2288C65.9924 78.0863 67.7709 80.1862 68.7415 82.2866C69.3077 83.659 69.469 85.114 70.0351 86.5677C71.3297 90.1208 72.542 94.0796 74.241 97.3918C75.1308 99.0878 76.1009 100.865 77.2332 102.399C77.8803 103.288 79.0122 103.692 79.2553 105.146C78.1234 106.761 78.0421 109.185 77.3945 111.204C74.4832 120.332 75.616 131.64 79.7401 138.344C81.0338 140.363 84.1073 144.807 88.2319 143.11C91.8716 141.656 91.0628 137.052 92.1134 133.013C92.3569 132.043 92.1952 131.397 92.68 130.751V130.913C93.8124 133.174 94.9442 135.356 95.9957 137.617C98.5031 141.575 102.87 145.695 106.509 148.441C108.451 149.895 109.987 152.399 112.414 153.288V153.045H112.251C111.766 152.318 111.038 151.995 110.391 151.429C108.936 149.976 107.318 148.199 106.186 146.583C102.79 142.059 99.7968 137.051 97.1281 131.882C95.8344 129.378 94.7016 126.632 93.6506 124.128C93.1648 123.158 93.1648 121.704 92.3565 121.22C91.1432 122.997 89.3643 124.532 88.4746 126.713C86.9387 130.186 86.7765 134.467 86.2103 138.909C85.8868 138.991 86.0481 138.909 85.8863 139.071C83.299 138.424 82.4093 135.759 81.4382 133.497C79.0117 127.763 78.6073 118.554 80.7107 111.931C81.2769 110.235 83.7034 104.904 82.7328 103.288C82.2475 101.753 80.6294 100.865 79.7401 99.6532C78.6891 98.1184 77.5563 96.1805 76.8288 94.4835C74.8876 89.9601 73.917 84.952 71.8146 80.4286C70.844 78.3282 69.1464 76.148 67.7709 74.2092C66.2346 72.0285 64.536 70.4931 63.3228 67.9085C62.9188 67.0204 62.3522 65.5662 62.9993 64.5968C63.161 63.9506 63.4841 63.7087 64.1316 63.5471C65.1831 62.658 68.1758 63.789 69.2263 64.2737C72.219 65.4845 74.7259 66.6164 77.2332 68.3124C78.3651 69.1203 79.5784 70.6552 81.0338 71.0591H82.7323C85.3206 71.6241 88.2314 71.2206 90.6579 71.9472C94.9447 73.3201 98.8262 75.3397 102.304 77.5208C112.899 84.225 121.632 93.7565 127.537 105.146C128.507 107.003 128.911 108.7 129.801 110.638C131.5 114.596 133.603 118.635 135.3 122.512C136.999 126.308 138.616 130.186 141.042 133.336C142.256 135.032 147.108 135.921 149.291 136.81C150.909 137.536 153.416 138.183 154.872 139.071C157.621 140.767 160.371 142.706 162.959 144.563C164.253 145.533 168.297 147.552 168.54 149.168V149.168Z" fill="#00546B"/>
<path d="M86.0474 78.974C84.6728 78.974 83.7027 79.1365 82.7321 79.3784V79.5399H82.8939C83.5414 80.8325 84.6728 81.7211 85.4812 82.8516C86.1287 84.1437 86.6944 85.4367 87.342 86.7292C87.4224 86.648 87.5033 86.5677 87.5033 86.5677C88.6361 85.7594 89.2018 84.4673 89.2018 82.5285C88.7165 81.9635 88.6356 81.398 88.2312 80.8325C87.7464 80.0242 86.6944 79.6207 86.0474 78.974V78.974Z" fill="#00546B"/>
</g>
</g>
</g>
<defs>
<filter id="filter0_d_6_629" x="0" y="0" width="236" height="236" filterUnits="userSpaceOnUse" color-interpolation-filters="sRGB">
<feFlood flood-opacity="0" result="BackgroundImageFix"/>
<feColorMatrix in="SourceAlpha" type="matrix" values="0 0 0 0 0 0 0 0 0 0 0 0 0 0 0 0 0 0 127 0" result="hardAlpha"/>
<feOffset dy="4"/>
<feGaussianBlur stdDeviation="2"/>
<feColorMatrix type="matrix" values="0 0 0 0 0 0 0 0 0 0 0 0 0 0 0 0 0 0 0.25 0"/>
<feBlend mode="normal" in2="BackgroundImageFix" result="effect1_dropShadow_6_629"/>
<feBlend mode="normal" in="SourceGraphic" in2="effect1_dropShadow_6_629" result="shape"/>
</filter>
<clipPath id="clip0_6_629">
<rect width="236" height="236" fill="white"/>
</clipPath>
<clipPath id="clip1_6_629">
<rect width="119" height="117" fill="white" transform="translate(59 59)"/>
</clipPath>
</defs>
</svg>
