<svg width="236" height="236" viewBox="0 0 236 236" fill="none" xmlns="http://www.w3.org/2000/svg">
<g clip-path="url(#clip0_4_186)">
<g filter="url(#filter0_d_4_186)">
<path d="M118 225.5C179.58 225.5 229.5 175.58 229.5 114C229.5 52.4202 179.58 2.5 118 2.5C56.4202 2.5 6.5 52.4202 6.5 114C6.5 175.58 56.4202 225.5 118 225.5Z" stroke="#20232A" stroke-width="5"/>
<path d="M118 204.5C167.982 204.5 208.5 163.982 208.5 114C208.5 64.0182 167.982 23.5 118 23.5C68.0182 23.5 27.5 64.0182 27.5 114C27.5 163.982 68.0182 204.5 118 204.5Z" fill="#20232A" stroke="#20232A"/>
<g clip-path="url(#clip1_4_186)">
<path d="M118.059 63.0291C91.9768 63.0291 93.6053 74.3853 93.6053 74.3853L93.6343 86.1508H118.524V89.6831H83.7484C83.7484 89.6831 67.0583 87.7826 67.0583 114.205C67.0583 140.628 81.6258 139.691 81.6258 139.691H90.3197V127.43C90.3197 127.43 89.851 112.804 104.655 112.804H129.341C129.341 112.804 143.21 113.029 143.21 99.3457V76.7212C143.21 76.7212 145.317 63.0291 118.059 63.0291ZM104.335 70.9411C104.923 70.9406 105.505 71.0565 106.049 71.2822C106.592 71.508 107.086 71.8391 107.502 72.2567C107.918 72.6742 108.248 73.17 108.473 73.7157C108.698 74.2614 108.813 74.8462 108.812 75.4367C108.813 76.0273 108.698 76.6121 108.473 77.1578C108.248 77.7035 107.918 78.1993 107.502 78.6168C107.086 79.0344 106.592 79.3655 106.049 79.5913C105.505 79.817 104.923 79.9329 104.335 79.9324C103.747 79.9329 103.164 79.817 102.621 79.5913C102.077 79.3655 101.583 79.0344 101.167 78.6168C100.752 78.1993 100.422 77.7035 100.197 77.1578C99.9721 76.6121 99.8566 76.0273 99.8571 75.4367C99.8566 74.8462 99.9721 74.2614 100.197 73.7157C100.422 73.17 100.752 72.6742 101.167 72.2567C101.583 71.8391 102.077 71.508 102.621 71.2822C103.164 71.0565 103.747 70.9406 104.335 70.9411V70.9411Z" fill="url(#paint0_linear_4_186)"/>
<path d="M118.8 165.647C144.882 165.647 143.253 154.291 143.253 154.291L143.224 142.526H118.334V138.993H153.11C153.11 138.993 169.8 140.894 169.8 114.471C169.8 88.0476 155.233 88.9847 155.233 88.9847H146.539V101.246C146.539 101.246 147.007 115.872 132.204 115.872H107.517C107.517 115.872 93.6479 115.647 93.6479 129.33V151.955C93.6479 151.955 91.5419 165.647 118.799 165.647H118.8ZM132.524 157.736C131.936 157.736 131.353 157.62 130.81 157.395C130.266 157.169 129.772 156.838 129.357 156.42C128.941 156.003 128.611 155.507 128.386 154.961C128.161 154.415 128.046 153.831 128.046 153.24C128.046 152.65 128.161 152.065 128.386 151.519C128.611 150.973 128.941 150.477 129.356 150.06C129.772 149.642 130.266 149.311 130.81 149.085C131.353 148.859 131.936 148.744 132.524 148.744C133.112 148.744 133.695 148.859 134.238 149.085C134.782 149.311 135.275 149.642 135.691 150.06C136.107 150.477 136.437 150.973 136.662 151.519C136.887 152.064 137.002 152.649 137.002 153.24C137.002 153.83 136.887 154.415 136.662 154.961C136.437 155.506 136.107 156.002 135.691 156.42C135.275 156.837 134.782 157.169 134.238 157.394C133.695 157.62 133.112 157.736 132.524 157.735V157.736Z" fill="url(#paint1_linear_4_186)"/>
</g>
</g>
</g>
<defs>
<filter id="filter0_d_4_186" x="0" y="0" width="236" height="236" filterUnits="userSpaceOnUse" color-interpolation-filters="sRGB">
<feFlood flood-opacity="0" result="BackgroundImageFix"/>
<feColorMatrix in="SourceAlpha" type="matrix" values="0 0 0 0 0 0 0 0 0 0 0 0 0 0 0 0 0 0 127 0" result="hardAlpha"/>
<feOffset dy="4"/>
<feGaussianBlur stdDeviation="2"/>
<feColorMatrix type="matrix" values="0 0 0 0 0 0 0 0 0 0 0 0 0 0 0 0 0 0 0.25 0"/>
<feBlend mode="normal" in2="BackgroundImageFix" result="effect1_dropShadow_4_186"/>
<feBlend mode="normal" in="SourceGraphic" in2="effect1_dropShadow_4_186" result="shape"/>
</filter>
<linearGradient id="paint0_linear_4_186" x1="76.9318" y1="72.259" x2="128.049" y2="122.664" gradientUnits="userSpaceOnUse">
<stop stop-color="#387EB8"/>
<stop offset="1" stop-color="#366994"/>
</linearGradient>
<linearGradient id="paint1_linear_4_186" x1="108.184" y1="104.758" x2="163.068" y2="156.434" gradientUnits="userSpaceOnUse">
<stop stop-color="#FFE052"/>
<stop offset="1" stop-color="#FFC331"/>
</linearGradient>
<clipPath id="clip0_4_186">
<rect width="236" height="236" fill="white"/>
</clipPath>
<clipPath id="clip1_4_186">
<rect width="103" height="103" fill="white" transform="translate(67 63)"/>
</clipPath>
</defs>
</svg>
