<svg width="236" height="236" viewBox="0 0 236 236" fill="none" xmlns="http://www.w3.org/2000/svg">
<g clip-path="url(#clip0_4_425)">
<g filter="url(#filter0_d_4_425)">
<path d="M118 225.5C179.58 225.5 229.5 175.58 229.5 114C229.5 52.4202 179.58 2.5 118 2.5C56.4202 2.5 6.5 52.4202 6.5 114C6.5 175.58 56.4202 225.5 118 225.5Z" stroke="#20232A" stroke-width="5"/>
<path d="M118 204.5C167.982 204.5 208.5 163.982 208.5 114C208.5 64.0182 167.982 23.5 118 23.5C68.0182 23.5 27.5 64.0182 27.5 114C27.5 163.982 68.0182 204.5 118 204.5Z" fill="#20232A" stroke="#20232A"/>
<g clip-path="url(#clip1_4_425)">
<path d="M178.828 113.35C178.828 146.679 151.809 173.699 118.478 173.699C85.1466 173.699 58.1276 146.679 58.1276 113.35C58.1276 80.0194 85.1475 53 118.478 53C151.81 53 178.828 80.0194 178.828 113.35Z" fill="#DD4814"/>
<path d="M77.4418 105.291C72.9898 105.291 69.383 108.898 69.383 113.35C69.383 117.8 72.9898 121.407 77.4418 121.407C81.8918 121.407 85.4987 117.8 85.4987 113.35C85.4987 108.898 81.8918 105.291 77.4418 105.291ZM134.971 141.912C131.118 144.138 129.796 149.063 132.022 152.915C134.246 156.769 139.171 158.09 143.025 155.864C146.878 153.64 148.2 148.715 145.974 144.861C143.75 141.009 138.822 139.688 134.971 141.912ZM94.9438 113.35C94.9438 105.388 98.899 98.3527 104.95 94.0931L99.0597 84.2269C92.0105 88.9393 86.7649 96.1397 84.585 104.573C87.1289 106.648 88.7567 109.808 88.7567 113.35C88.7567 116.889 87.1289 120.049 84.585 122.124C86.7621 130.56 92.0076 137.761 99.0597 142.474L104.95 132.605C98.899 128.347 94.9438 121.313 94.9438 113.35V113.35ZM118.478 89.8132C130.773 89.8132 140.861 99.2399 141.92 111.262L153.4 111.093C152.836 102.218 148.958 94.2496 143.001 88.3905C139.937 89.5481 136.398 89.3708 133.34 87.6078C130.276 85.8396 128.354 82.8567 127.829 79.619C124.784 78.7761 121.638 78.3484 118.478 78.3475C113.097 78.342 107.788 79.5817 102.966 81.9695L108.564 92.0026C111.669 90.5573 115.053 89.81 118.478 89.8132V89.8132ZM118.478 136.885C115.054 136.888 111.67 136.141 108.565 134.696L102.966 144.728C107.788 147.118 113.097 148.359 118.479 148.354C121.639 148.353 124.785 147.924 127.83 147.079C128.355 143.841 130.277 140.861 133.34 139.09C136.401 137.324 139.938 137.15 143.001 138.307C148.959 132.448 152.836 124.48 153.401 115.605L141.917 115.435C140.861 127.461 130.774 136.885 118.478 136.885V136.885ZM134.968 84.7837C138.822 87.009 143.748 85.6912 145.971 81.8372C148.197 77.9831 146.879 73.0576 143.025 70.8314C139.171 68.608 134.246 69.9286 132.019 73.7826C129.796 77.6348 131.117 82.5598 134.968 84.7837Z" fill="white"/>
</g>
</g>
</g>
<defs>
<filter id="filter0_d_4_425" x="0" y="0" width="236" height="236" filterUnits="userSpaceOnUse" color-interpolation-filters="sRGB">
<feFlood flood-opacity="0" result="BackgroundImageFix"/>
<feColorMatrix in="SourceAlpha" type="matrix" values="0 0 0 0 0 0 0 0 0 0 0 0 0 0 0 0 0 0 127 0" result="hardAlpha"/>
<feOffset dy="4"/>
<feGaussianBlur stdDeviation="2"/>
<feColorMatrix type="matrix" values="0 0 0 0 0 0 0 0 0 0 0 0 0 0 0 0 0 0 0.25 0"/>
<feBlend mode="normal" in2="BackgroundImageFix" result="effect1_dropShadow_4_425"/>
<feBlend mode="normal" in="SourceGraphic" in2="effect1_dropShadow_4_425" result="shape"/>
</filter>
<clipPath id="clip0_4_425">
<rect width="236" height="236" fill="white"/>
</clipPath>
<clipPath id="clip1_4_425">
<rect width="121" height="121" fill="white" transform="translate(58 53)"/>
</clipPath>
</defs>
</svg>
