<svg width="244" height="236" viewBox="0 0 244 236" fill="none" xmlns="http://www.w3.org/2000/svg">
<g clip-path="url(#clip0_5_457)">
<g filter="url(#filter0_d_5_457)">
<path d="M122 225.5C185.667 225.5 237.28 175.58 237.28 114C237.28 52.4202 185.667 2.5 122 2.5C58.3328 2.5 6.72034 52.4202 6.72034 114C6.72034 175.58 58.3328 225.5 122 225.5Z" stroke="#20232A" stroke-width="5"/>
<path d="M122 204.5C173.676 204.5 215.568 163.982 215.568 114C215.568 64.0182 173.676 23.5 122 23.5C70.3239 23.5 28.4322 64.0182 28.4322 114C28.4322 163.982 70.3239 204.5 122 204.5Z" fill="#20232A" stroke="#20232A"/>
<rect width="129" height="127" transform="translate(58 50)" fill="#20232A"/>
<path d="M182.681 65.7452L153.999 54.7925L103.933 101.237L73.7838 79.3748L62.3195 84.8673L62.3082 142.201L73.7185 147.654L103.843 125.809L154.032 172.211L182.692 161.301L182.681 65.7452Z" fill="#68217A"/>
<path d="M151.144 93.0361L122.495 113.438L151.155 133.999L151.144 93.0361V93.0361ZM76.632 101.26L76.649 125.799L90.9617 113.447L76.632 101.26V101.26Z" fill="#20232A"/>
</g>
</g>
<defs>
<filter id="filter0_d_5_457" x="0.220337" y="0" width="243.559" height="236" filterUnits="userSpaceOnUse" color-interpolation-filters="sRGB">
<feFlood flood-opacity="0" result="BackgroundImageFix"/>
<feColorMatrix in="SourceAlpha" type="matrix" values="0 0 0 0 0 0 0 0 0 0 0 0 0 0 0 0 0 0 127 0" result="hardAlpha"/>
<feOffset dy="4"/>
<feGaussianBlur stdDeviation="2"/>
<feColorMatrix type="matrix" values="0 0 0 0 0 0 0 0 0 0 0 0 0 0 0 0 0 0 0.25 0"/>
<feBlend mode="normal" in2="BackgroundImageFix" result="effect1_dropShadow_5_457"/>
<feBlend mode="normal" in="SourceGraphic" in2="effect1_dropShadow_5_457" result="shape"/>
</filter>
<clipPath id="clip0_5_457">
<rect width="244" height="236" fill="white"/>
</clipPath>
</defs>
</svg>
