<svg width="236" height="236" viewBox="0 0 236 236" fill="none" xmlns="http://www.w3.org/2000/svg">
<g clip-path="url(#clip0_4_379)">
<g filter="url(#filter0_d_4_379)">
<path d="M118 225.5C179.58 225.5 229.5 175.58 229.5 114C229.5 52.4202 179.58 2.5 118 2.5C56.4202 2.5 6.5 52.4202 6.5 114C6.5 175.58 56.4202 225.5 118 225.5Z" stroke="#20232A" stroke-width="5"/>
<path d="M118 204.5C167.982 204.5 208.5 163.982 208.5 114C208.5 64.0182 167.982 23.5 118 23.5C68.0182 23.5 27.5 64.0182 27.5 114C27.5 163.982 68.0182 204.5 118 204.5Z" fill="#20232A" stroke="#20232A"/>
</g>
<g clip-path="url(#clip1_4_379)">
<path d="M68 75.9997L108.867 70.1242L108.885 111.742L68.0371 111.987L68 76.0001V75.9997ZM108.848 116.536L108.879 158.19L68.0316 152.261L68.0293 116.257L108.847 116.536H108.848ZM113.802 69.355L167.988 61.0059V111.212L113.802 111.666V69.3554V69.355ZM168 116.928L167.987 166.908L113.801 158.834L113.725 116.835L168 116.928Z" fill="#00ADEF"/>
</g>
</g>
<defs>
<filter id="filter0_d_4_379" x="0" y="0" width="236" height="236" filterUnits="userSpaceOnUse" color-interpolation-filters="sRGB">
<feFlood flood-opacity="0" result="BackgroundImageFix"/>
<feColorMatrix in="SourceAlpha" type="matrix" values="0 0 0 0 0 0 0 0 0 0 0 0 0 0 0 0 0 0 127 0" result="hardAlpha"/>
<feOffset dy="4"/>
<feGaussianBlur stdDeviation="2"/>
<feColorMatrix type="matrix" values="0 0 0 0 0 0 0 0 0 0 0 0 0 0 0 0 0 0 0.25 0"/>
<feBlend mode="normal" in2="BackgroundImageFix" result="effect1_dropShadow_4_379"/>
<feBlend mode="normal" in="SourceGraphic" in2="effect1_dropShadow_4_379" result="shape"/>
</filter>
<clipPath id="clip0_4_379">
<rect width="236" height="236" fill="white"/>
</clipPath>
<clipPath id="clip1_4_379">
<rect width="100" height="106" fill="white" transform="translate(68 61)"/>
</clipPath>
</defs>
</svg>
