<svg width="236" height="236" viewBox="0 0 236 236" fill="none" xmlns="http://www.w3.org/2000/svg">
<g clip-path="url(#clip0_6_565)">
<g filter="url(#filter0_d_6_565)">
<path d="M118 225.5C179.58 225.5 229.5 175.58 229.5 114C229.5 52.4202 179.58 2.5 118 2.5C56.4202 2.5 6.5 52.4202 6.5 114C6.5 175.58 56.4202 225.5 118 225.5Z" stroke="#20232A" stroke-width="5"/>
<path d="M118 204.5C167.982 204.5 208.5 163.982 208.5 114C208.5 64.0182 167.982 23.5 118 23.5C68.0182 23.5 27.5 64.0182 27.5 114C27.5 163.982 68.0182 204.5 118 204.5Z" fill="#20232A" stroke="#20232A"/>
<g clip-path="url(#clip1_6_565)">
<path d="M165.776 49.002C175.148 53.7756 183.198 66.3024 182.794 83.3006C181.569 104.245 166.377 122.295 149.848 138.926C148.923 118.644 144.511 105.719 137.622 87.5433C131.119 69.2271 150.133 49.5883 165.776 49.002V49.002Z" fill="url(#paint0_linear_6_565)"/>
<path d="M115.082 138.212C120.115 131.955 123.682 126.383 126.171 121.348C143.221 130.259 139.198 128.595 147.421 138.09C147.449 138.385 147.475 138.68 147.5 138.973C148.182 152.138 138.575 182.571 100.746 186.742C98.1271 166.292 106.64 148.849 115.082 138.212V138.212Z" fill="url(#paint1_linear_6_565)"/>
<path d="M54.2035 61.7157C81.1572 51.0539 110.166 61.9755 126.913 84.7309C128.533 86.9319 130.07 89.2184 131.519 91.5715C134.136 108.27 132.14 117.544 127.046 122.46C123.697 120.771 120.124 119.273 116.309 117.888C107.441 114.667 99.2562 112.536 87.5673 109.076C59.8109 101.504 52.966 77.7141 54.2035 61.7157Z" fill="url(#paint2_linear_6_565)"/>
<path d="M130.488 89.9366C130.665 90.2111 130.84 90.4836 131.012 90.7601L131.225 91.1011C131.657 91.7956 132.081 92.4942 132.5 93.2013L132.57 93.3192L132.683 93.5105L132.785 93.6873L133.084 94.201L133.105 94.2383L133.51 94.9495L133.523 94.9701C133.816 95.4879 134.105 96.0076 134.39 96.5314L134.425 96.5979L134.742 97.1842L134.75 97.1993L135.098 97.8515L135.197 98.0429L135.391 98.4156L135.628 98.8744L135.857 99.3196C136.09 99.781 136.32 100.243 136.547 100.704L136.606 100.819C137.014 101.655 137.413 102.496 137.801 103.342L138.097 103.989L138.126 104.053L138.315 104.473L138.536 104.971L138.66 105.258L138.86 105.717L139.003 106.047L139.305 106.759L139.326 106.808L139.648 107.582L139.688 107.675C140.031 108.511 140.364 109.347 140.686 110.188L140.718 110.266L140.984 110.971L141 111.01L141.154 111.426C141.325 111.887 141.493 112.349 141.66 112.812L141.724 112.994C141.907 113.511 142.088 114.031 142.263 114.548L142.319 114.713C142.483 115.199 142.641 115.686 142.799 116.172L142.877 116.411L142.895 116.467L143.145 117.256L143.155 117.291L143.386 118.043L143.617 118.819L143.623 118.836L143.815 119.49L143.875 119.703L143.991 120.108C144.122 120.576 144.251 121.042 144.376 121.509L144.47 121.858L144.651 122.548L144.659 122.582C144.879 123.43 145.087 124.278 145.285 125.125L145.304 125.212L145.324 125.301C145.582 126.418 145.82 127.531 146.038 128.639L146.059 128.749C146.393 130.453 146.681 132.165 146.924 133.884L146.928 133.907C147.003 134.431 147.072 134.952 147.136 135.475L147.163 135.699L147.251 136.445V136.447L147.325 137.138L147.35 137.366L147.404 137.913L147.425 138.133L147.433 138.223L147.5 138.973C141.545 131.308 134.432 126.025 125.896 121.892C132.785 108.278 131.817 98.5778 130.488 89.9366" fill="url(#paint3_linear_6_565)"/>
</g>
</g>
</g>
<defs>
<filter id="filter0_d_6_565" x="0" y="0" width="236" height="236" filterUnits="userSpaceOnUse" color-interpolation-filters="sRGB">
<feFlood flood-opacity="0" result="BackgroundImageFix"/>
<feColorMatrix in="SourceAlpha" type="matrix" values="0 0 0 0 0 0 0 0 0 0 0 0 0 0 0 0 0 0 127 0" result="hardAlpha"/>
<feOffset dy="4"/>
<feGaussianBlur stdDeviation="2"/>
<feColorMatrix type="matrix" values="0 0 0 0 0 0 0 0 0 0 0 0 0 0 0 0 0 0 0.25 0"/>
<feBlend mode="normal" in2="BackgroundImageFix" result="effect1_dropShadow_6_565"/>
<feBlend mode="normal" in="SourceGraphic" in2="effect1_dropShadow_6_565" result="shape"/>
</filter>
<linearGradient id="paint0_linear_6_565" x1="159.56" y1="49.002" x2="159.56" y2="138.926" gradientUnits="userSpaceOnUse">
<stop stop-color="#73B723"/>
<stop offset="1" stop-color="#D8EE61"/>
</linearGradient>
<linearGradient id="paint1_linear_6_565" x1="140.376" y1="138.515" x2="95.6396" y2="171.975" gradientUnits="userSpaceOnUse">
<stop stop-color="#98C9EA"/>
<stop offset="0.68865" stop-color="#026FB2"/>
<stop offset="1" stop-color="#086EB6"/>
</linearGradient>
<linearGradient id="paint2_linear_6_565" x1="54.0667" y1="61.7037" x2="111.957" y2="113.673" gradientUnits="userSpaceOnUse">
<stop stop-color="#D73721"/>
<stop offset="1" stop-color="#F7D768"/>
</linearGradient>
<linearGradient id="paint3_linear_6_565" x1="132.585" y1="105.135" x2="151.566" y2="112.739" gradientUnits="userSpaceOnUse">
<stop stop-color="#D4C883"/>
<stop offset="1" stop-color="#A1D1A7"/>
</linearGradient>
<clipPath id="clip0_6_565">
<rect width="236" height="236" fill="white"/>
</clipPath>
<clipPath id="clip1_6_565">
<rect width="129" height="138" fill="white" transform="translate(54 49)"/>
</clipPath>
</defs>
</svg>
